STARTFONT 2.1
FONT -misc-spleen-medium-r-normal--64-640-72-72-C-320-iso10646-1
SIZE 64 72 72
FONTBOUNDINGBOX 55 64 0 -12
COMMENT "Generated by fontforge, http://fontforge.sourceforge.net"
COMMENT "/*"
COMMENT "* Spleen 32x64 1.0.4"
COMMENT "* Copyright (c) 2018-2019, Frederic Cambus"
COMMENT "* https://www.cambus.net/"
COMMENT "*"
COMMENT "* Created:      2018-09-11"
COMMENT "* Last Updated: 2019-02-06"
COMMENT "*"
COMMENT "* Spleen is released under the BSD 2-Clause license."
COMMENT "* See LICENSE file for details."
COMMENT "*/"
STARTPROPERTIES 18
FAMILY_NAME "Spleen"
FOUNDRY "misc"
SLANT "R"
SETWIDTH_NAME "Normal"
PIXEL_SIZE 64
POINT_SIZE 640
RESOLUTION_X 72
RESOLUTION_Y 72
SPACING "C"
AVERAGE_WIDTH 320
CHARSET_REGISTRY "ISO10646"
CHARSET_ENCODING "1"
MIN_SPACE 32
FONT_ASCENT 52
FONT_DESCENT 12
COPYRIGHT "Copyright (c) 2018-2019, Frederic Cambus"
DEFAULT_CHAR 32
_GBDFED_INFO "Edited with gbdfed 1.6."
ENDPROPERTIES
CHARS 192
STARTCHAR SPACE
ENCODING 32
SWIDTH 500 0
DWIDTH 32 0
BBX 1 1 31 -12
BITMAP
00
ENDCHAR
STARTCHAR EXCLAMATION
ENCODING 33
SWIDTH 500 0
DWIDTH 32 0
BBX 4 40 14 0
BITMAP
F0
F0
F0
F0
F0
F0
F0
F0
F0
F0
F0
F0
F0
F0
F0
F0
F0
F0
F0
F0
F0
F0
F0
F0
F0
F0
F0
F0
00
00
00
00
00
00
F0
F0
F0
F0
F0
F0
ENDCHAR
STARTCHAR QUOTATION
ENCODING 34
SWIDTH 500 0
DWIDTH 32 0
BBX 20 16 6 28
BITMAP
F000F0
F000F0
F000F0
F000F0
F000F0
F000F0
F000F0
F000F0
F000F0
F000F0
F000F0
F000F0
F000F0
F000F0
F000F0
F000F0
ENDCHAR
STARTCHAR NUMBER
ENCODING 35
SWIDTH 500 0
DWIDTH 32 0
BBX 28 40 2 0
BITMAP
0F000F00
0F000F00
0F000F00
0F000F00
0F000F00
0F000F00
0F000F00
0F000F00
FFFFFFF0
FFFFFFF0
FFFFFFF0
FFFFFFF0
0F000F00
0F000F00
0F000F00
0F000F00
0F000F00
0F000F00
0F000F00
0F000F00
0F000F00
0F000F00
0F000F00
0F000F00
0F000F00
0F000F00
0F000F00
0F000F00
FFFFFFF0
FFFFFFF0
FFFFFFF0
FFFFFFF0
0F000F00
0F000F00
0F000F00
0F000F00
0F000F00
0F000F00
0F000F00
0F000F00
ENDCHAR
STARTCHAR DOLLAR
ENCODING 36
SWIDTH 500 0
DWIDTH 32 0
BBX 24 48 4 -4
BITMAP
003C00
003C00
003C00
003C00
07FFFF
1FFFFF
3FFFFF
7FFFFF
7C3C00
F83C00
F03C00
F03C00
F03C00
F03C00
F03C00
F03C00
F03C00
F03C00
F83C00
7C3C00
7FFFE0
3FFFF8
1FFFFC
07FFFE
003C3E
003C1F
003C0F
003C0F
003C0F
003C0F
003C0F
003C0F
003C0F
003C0F
003C0F
003C0F
003C0F
003C0F
003C1F
003C3E
FFFFFE
FFFFFC
FFFFF8
FFFFE0
003C00
003C00
003C00
003C00
ENDCHAR
STARTCHAR PERCENT
ENCODING 37
SWIDTH 500 0
DWIDTH 32 0
BBX 22 40 5 0
BITMAP
00003C
00003C
3F007C
7F807C
F3C0F8
F3C0F8
F3C1F0
F3C1F0
F3C3E0
F3C3E0
7F87C0
3F07C0
000F80
000F80
001F00
001F00
003E00
003E00
007C00
007C00
00F800
00F800
01F000
01F000
03E000
03E000
07C000
07C000
0F83F0
0F87F8
1F0F3C
1F0F3C
3E0F3C
3E0F3C
7C0F3C
7C0F3C
F807F8
F803F0
F00000
F00000
ENDCHAR
STARTCHAR AMPERSAND
ENCODING 38
SWIDTH 500 0
DWIDTH 32 0
BBX 28 40 2 0
BITMAP
007FE000
01FFF800
03FFFC00
07FFFE00
07C03E00
0F801F00
0F000F00
0F000F00
0F000F00
0F000F00
0F000F00
0F000F00
0F000F00
0F000F00
0F801F00
07C03E00
07FFFE00
03FFFC00
01FFF800
00FFE000
07FF0000
1FFF0000
3FFF8000
7FFFC000
7C03E1C0
F801F3C0
F000FFC0
F0007F80
F0003F00
F0003E00
F0003C00
F0003C00
F0003E00
F0003F00
F8007F80
7C00FFC0
7FFFF3E0
3FFFF1F0
1FFFE0F0
07FF8070
ENDCHAR
STARTCHAR APOSTROPHE
ENCODING 39
SWIDTH 500 0
DWIDTH 32 0
BBX 4 16 14 28
BITMAP
F0
F0
F0
F0
F0
F0
F0
F0
F0
F0
F0
F0
F0
F0
F0
F0
ENDCHAR
STARTCHAR LEFT
ENCODING 40
SWIDTH 500 0
DWIDTH 32 0
BBX 23 56 5 -8
BITMAP
0001FE
0007FE
001FFE
003FFE
007F80
00FE00
01F800
03F000
07E000
07C000
0F8000
0F8000
1F0000
1F0000
3E0000
3E0000
7C0000
7C0000
780000
780000
F80000
F80000
F00000
F00000
F00000
F00000
F00000
F00000
F00000
F00000
F00000
F00000
F00000
F00000
F80000
F80000
780000
780000
7C0000
7C0000
3E0000
3E0000
1F0000
1F0000
0F8000
0F8000
07C000
07E000
03F000
01F800
00FE00
007F80
003FFE
001FFE
0007FE
0001FE
ENDCHAR
STARTCHAR RIGHT
ENCODING 41
SWIDTH 500 0
DWIDTH 32 0
BBX 23 56 5 -8
BITMAP
FF0000
FFC000
FFF000
FFF800
03FC00
00FE00
003F00
001F80
000FC0
0007C0
0003E0
0003E0
0001F0
0001F0
0000F8
0000F8
00007C
00007C
00003C
00003C
00003E
00003E
00001E
00001E
00001E
00001E
00001E
00001E
00001E
00001E
00001E
00001E
00001E
00001E
00003E
00003E
00003C
00003C
00007C
00007C
0000F8
0000F8
0001F0
0001F0
0003E0
0003E0
0007C0
000FC0
001F80
003F00
00FE00
03FC00
FFF800
FFF000
FFC000
FF0000
ENDCHAR
STARTCHAR ASTERISK
ENCODING 42
SWIDTH 500 0
DWIDTH 32 0
BBX 28 28 2 4
BITMAP
0F000F00
0F000F00
0F801F00
0FC03F00
07E07E00
03F0FC00
01F9F800
00FFF000
007FE000
003FC000
003FC000
003FC000
FFFFFFF0
FFFFFFF0
FFFFFFF0
FFFFFFF0
003FC000
003FC000
003FC000
007FE000
00FFF000
01F9F800
03F0FC00
07E07E00
0FC03F00
0F801F00
0F000F00
0F000F00
ENDCHAR
STARTCHAR PLUS
ENCODING 43
SWIDTH 500 0
DWIDTH 32 0
BBX 20 20 6 8
BITMAP
00F000
00F000
00F000
00F000
00F000
00F000
00F000
00F000
FFFFF0
FFFFF0
FFFFF0
FFFFF0
00F000
00F000
00F000
00F000
00F000
00F000
00F000
00F000
ENDCHAR
STARTCHAR COMMA
ENCODING 44
SWIDTH 500 0
DWIDTH 32 0
BBX 8 12 10 -4
BITMAP
0F
0F
0F
0F
0F
0F
1F
3E
FE
FC
F8
E0
ENDCHAR
STARTCHAR HYPHEN-MINUS
ENCODING 45
SWIDTH 500 0
DWIDTH 32 0
BBX 24 4 4 16
BITMAP
FFFFFF
FFFFFF
FFFFFF
FFFFFF
ENDCHAR
STARTCHAR FULL
ENCODING 46
SWIDTH 500 0
DWIDTH 32 0
BBX 4 6 14 0
BITMAP
F0
F0
F0
F0
F0
F0
ENDCHAR
STARTCHAR SOLIDUS
ENCODING 47
SWIDTH 500 0
DWIDTH 32 0
BBX 28 52 2 -6
BITMAP
000000F0
000000F0
000001F0
000001F0
000003E0
000003E0
000007C0
000007C0
00000F80
00000F80
00001F00
00001F00
00003E00
00003E00
00007C00
00007C00
0000F800
0000F800
0001F000
0001F000
0003E000
0003E000
0007C000
0007C000
000F8000
000F8000
001F0000
001F0000
003E0000
003E0000
007C0000
007C0000
00F80000
00F80000
01F00000
01F00000
03E00000
03E00000
07C00000
07C00000
0F800000
0F800000
1F000000
1F000000
3E000000
3E000000
7C000000
7C000000
F8000000
F8000000
F0000000
F0000000
ENDCHAR
STARTCHAR DIGIT
ENCODING 48
SWIDTH 500 0
DWIDTH 32 0
BBX 24 40 4 0
BITMAP
07FFE0
1FFFF8
3FFFFC
7FFFFE
7C003E
F8001F
F0000F
F0000F
F0000F
F0001F
F0003F
F0007F
F000FF
F001FF
F003FF
F007FF
F00FEF
F01FCF
F03F8F
F07F0F
F0FE0F
F1FC0F
F3F80F
F7F00F
FFE00F
FFC00F
FF800F
FF000F
FE000F
FC000F
F8000F
F0000F
F0000F
F0000F
F8001F
7C003E
7FFFFE
3FFFFC
1FFFF8
07FFE0
ENDCHAR
STARTCHAR DIGIT
ENCODING 49
SWIDTH 500 0
DWIDTH 32 0
BBX 20 40 6 0
BITMAP
03F000
07F000
0FF000
1FF000
3EF000
7CF000
F8F000
F0F000
E0F000
C0F000
00F000
00F000
00F000
00F000
00F000
00F000
00F000
00F000
00F000
00F000
00F000
00F000
00F000
00F000
00F000
00F000
00F000
00F000
00F000
00F000
00F000
00F000
00F000
00F000
00F000
00F000
FFFFF0
FFFFF0
FFFFF0
FFFFF0
ENDCHAR
STARTCHAR DIGIT
ENCODING 50
SWIDTH 500 0
DWIDTH 32 0
BBX 24 40 4 0
BITMAP
07FFE0
1FFFF8
3FFFFC
7FFFFE
7C003E
F8001F
F0000F
F0000F
00000F
00000F
00000F
00000F
00000F
00001E
00003E
00007C
0000F8
0001F0
0003E0
0007C0
000F80
001F00
003E00
007C00
00F800
01F000
03E000
07C000
0F8000
1F0000
3E0000
7C0000
F8000F
F0000F
F0000F
F0000F
FFFFFF
FFFFFF
FFFFFF
FFFFFF
ENDCHAR
STARTCHAR DIGIT
ENCODING 51
SWIDTH 500 0
DWIDTH 32 0
BBX 24 40 4 0
BITMAP
07FFE0
1FFFF8
3FFFFC
7FFFFE
7C003E
F8001F
F0000F
F0000F
00000F
00000F
00000F
00000F
00000F
00000F
00001E
00003C
03FFF8
03FFF0
03FFF8
03FFF8
00003C
00001E
00000F
00000F
00000F
00000F
00000F
00000F
00000F
00000F
00000F
00000F
F0000F
F0000F
F8001F
7C003E
7FFFFE
3FFFFC
1FFFF8
07FFE0
ENDCHAR
STARTCHAR DIGIT
ENCODING 52
SWIDTH 500 0
DWIDTH 32 0
BBX 24 40 4 0
BITMAP
F00000
F00000
F00000
F00000
F00000
F00000
F00000
F00000
F000F0
F000F0
F000F0
F000F0
F000F0
F000F0
F000F0
F000F0
F000F0
F000F0
F000F0
F000F0
F000F0
F000F0
F000F0
F000F0
FFFFFF
FFFFFF
FFFFFF
FFFFFF
0000F0
0000F0
0000F0
0000F0
0000F0
0000F0
0000F0
0000F0
0000F0
0000F0
0000F0
0000F0
ENDCHAR
STARTCHAR DIGIT
ENCODING 53
SWIDTH 500 0
DWIDTH 32 0
BBX 24 40 4 0
BITMAP
FFFFFF
FFFFFF
FFFFFF
FFFFFF
F0000F
F0000F
F0000F
F0000F
F00000
F00000
F00000
F00000
F00000
F00000
F00000
F00000
FFFFE0
FFFFF8
FFFFFC
FFFFFE
00003E
00001F
00000F
00000F
00000F
00000F
00000F
00000F
00000F
00000F
00000F
00000F
F0000F
F0000F
F8001F
7C003E
7FFFFE
3FFFFC
1FFFF8
07FFE0
ENDCHAR
STARTCHAR DIGIT
ENCODING 54
SWIDTH 500 0
DWIDTH 32 0
BBX 24 40 4 0
BITMAP
07FFE0
1FFFF8
3FFFFC
7FFFFE
7C003E
F8001F
F0000F
F0000F
F00000
F00000
F00000
F00000
F00000
F00000
F00000
F00000
FFFFE0
FFFFF8
FFFFFC
FFFFFE
F0003E
F0001F
F0000F
F0000F
F0000F
F0000F
F0000F
F0000F
F0000F
F0000F
F0000F
F0000F
F0000F
F0000F
F8001F
7C003E
7FFFFE
3FFFFC
1FFFF8
07FFE0
ENDCHAR
STARTCHAR DIGIT
ENCODING 55
SWIDTH 500 0
DWIDTH 32 0
BBX 24 40 4 0
BITMAP
FFFFFF
FFFFFF
FFFFFF
FFFFFF
F0000F
F0000F
F0000F
F0000F
00000F
00000F
00000F
00000F
00000F
00001F
00003E
00007C
0000F8
0001F0
0003E0
0007C0
000F80
001F00
003E00
007C00
00F800
00F000
00F000
00F000
00F000
00F000
00F000
00F000
00F000
00F000
00F000
00F000
00F000
00F000
00F000
00F000
ENDCHAR
STARTCHAR DIGIT
ENCODING 56
SWIDTH 500 0
DWIDTH 32 0
BBX 24 40 4 0
BITMAP
07FFE0
1FFFF8
3FFFFC
7FFFFE
7C003E
F8001F
F0000F
F0000F
F0000F
F0000F
F0000F
F0000F
F0000F
F0000F
78001E
3C003C
1FFFF8
0FFFF0
0FFFF0
1FFFF8
3C003C
78001E
F0000F
F0000F
F0000F
F0000F
F0000F
F0000F
F0000F
F0000F
F0000F
F0000F
F0000F
F0000F
F8001F
7C003E
7FFFFE
3FFFFC
1FFFF8
07FFE0
ENDCHAR
STARTCHAR DIGIT
ENCODING 57
SWIDTH 500 0
DWIDTH 32 0
BBX 24 40 4 0
BITMAP
07FFE0
1FFFF8
3FFFFC
7FFFFE
7C003E
F8001F
F0000F
F0000F
F0000F
F0000F
F0000F
F0000F
F0000F
F0000F
F0000F
F0000F
F0000F
F0000F
F8000F
7C000F
7FFFFF
3FFFFF
1FFFFF
07FFFF
00000F
00000F
00000F
00000F
00000F
00000F
00000F
00000F
F0000F
F0000F
F8001F
7C003E
7FFFFE
3FFFFC
1FFFF8
07FFE0
ENDCHAR
STARTCHAR COLON
ENCODING 58
SWIDTH 500 0
DWIDTH 32 0
BBX 4 26 14 0
BITMAP
F0
F0
F0
F0
F0
F0
00
00
00
00
00
00
00
00
00
00
00
00
00
00
F0
F0
F0
F0
F0
F0
ENDCHAR
STARTCHAR SEMICOLON
ENCODING 59
SWIDTH 500 0
DWIDTH 32 0
BBX 8 30 10 -4
BITMAP
0F
0F
0F
0F
0F
0F
00
00
00
00
00
00
00
00
00
00
00
00
0F
0F
0F
0F
0F
0F
1F
3E
FE
FC
F8
E0
ENDCHAR
STARTCHAR LESS-THAN
ENCODING 60
SWIDTH 500 0
DWIDTH 32 0
BBX 24 40 4 0
BITMAP
00003F
00007E
0000FC
0001F8
0003F0
0007E0
000FC0
001F80
003F00
007E00
00FC00
01F800
03F000
07E000
0FC000
1F8000
3F0000
7E0000
FC0000
FC0000
FC0000
FC0000
7E0000
3F0000
1F8000
0FC000
07E000
03F000
01F800
00FC00
007E00
003F00
001F80
000FC0
0007E0
0003F0
0001F8
0000FC
00007E
00003F
ENDCHAR
STARTCHAR EQUALS
ENCODING 61
SWIDTH 500 0
DWIDTH 32 0
BBX 24 16 4 12
BITMAP
FFFFFF
FFFFFF
FFFFFF
FFFFFF
000000
000000
000000
000000
000000
000000
000000
000000
FFFFFF
FFFFFF
FFFFFF
FFFFFF
ENDCHAR
STARTCHAR GREATER-THAN
ENCODING 62
SWIDTH 500 0
DWIDTH 32 0
BBX 24 40 4 0
BITMAP
FC0000
7E0000
3F0000
1F8000
0FC000
07E000
03F000
01F800
00FC00
007E00
003F00
001F80
000FC0
0007E0
0003F0
0001F8
0000FC
00007E
00003F
00003F
00003F
00003F
00007E
0000FC
0001F8
0003F0
0007E0
000FC0
001F80
003F00
007E00
00FC00
01F800
03F000
07E000
0FC000
1F8000
3F0000
7E0000
FC0000
ENDCHAR
STARTCHAR QUESTION
ENCODING 63
SWIDTH 500 0
DWIDTH 32 0
BBX 24 40 4 0
BITMAP
07FFE0
1FFFF8
3FFFFC
7FFFFE
7C003E
F8001F
F0000F
F0000F
00000F
00000F
00000F
00000F
00001E
00003C
000078
0000F0
0001E0
0003C0
000780
000780
000F00
000F00
001E00
001E00
003C00
003C00
003C00
003C00
000000
000000
000000
000000
000000
000000
003C00
003C00
003C00
003C00
003C00
003C00
ENDCHAR
STARTCHAR COMMERCIAL
ENCODING 64
SWIDTH 500 0
DWIDTH 32 0
BBX 24 36 4 0
BITMAP
07FFE0
1FFFF8
3FFFFC
7FFFFE
7C003E
F8001F
F0000F
F0000F
F0000F
F0000F
F03F0F
F03F0F
F03F0F
F03F0F
F03F0F
F03F0F
F03F0F
F03F0F
F03F0F
F03F0F
F03F0F
F03F0F
F03FFF
F03FFF
F03FFF
F03FFF
F00000
F00000
F00000
F00000
F80000
7C0000
7FFFFC
3FFFFC
1FFFFC
07FFFC
ENDCHAR
STARTCHAR LATIN
ENCODING 65
SWIDTH 1000 0
DWIDTH 64 0
BBX 51 37 4 5
BITMAP
0000003FFE0000
000000C0038000
0000008000C000
00000180006000
00000100003000
00000300000C00
000002000007C0
000002000007E0
000002000003E0
00000200002FE0
01FE02000803E0
0E018200200200
30008601400400
20004406000400
60003C10000400
40000000002400
40000020010400
400005005A0400
8000391CC00400
800C1010100800
8002D830603000
8607008000E000
80100500038000
801004002E0000
80044001C00000
84010003000000
8C0C0004000000
C000000C000000
40000010000000
40000010000000
40000010000000
20000020000000
30000020000000
18000060000000
0E0000C0000000
03E00180000000
003FFE00000000
ENDCHAR
STARTCHAR LATIN
ENCODING 66
SWIDTH 500 0
DWIDTH 32 0
BBX 24 40 4 0
BITMAP
FFFFE0
FFFFF8
FFFFFC
FFFFFE
F0003E
F0001F
F0000F
F0000F
F0000F
F0000F
F0000F
F0000F
F0000F
F0000F
F0001E
F0003C
FFFFF8
FFFFF0
FFFFF0
FFFFF8
F0003C
F0001E
F0000F
F0000F
F0000F
F0000F
F0000F
F0000F
F0000F
F0000F
F0000F
F0000F
F0000F
F0000F
F0001F
F0003E
FFFFFE
FFFFFC
FFFFF8
FFFFE0
ENDCHAR
STARTCHAR LATIN
ENCODING 67
SWIDTH 500 0
DWIDTH 32 0
BBX 24 40 4 0
BITMAP
07FFFF
1FFFFF
3FFFFF
7FFFFF
7C0000
F80000
F00000
F00000
F00000
F00000
F00000
F00000
F00000
F00000
F00000
F00000
F00000
F00000
F00000
F00000
F00000
F00000
F00000
F00000
F00000
F00000
F00000
F00000
F00000
F00000
F00000
F00000
F00000
F00000
F80000
7C0000
7FFFFF
3FFFFF
1FFFFF
07FFFF
ENDCHAR
STARTCHAR LATIN
ENCODING 68
SWIDTH 500 0
DWIDTH 32 0
BBX 24 40 4 0
BITMAP
FFFFE0
FFFFF8
FFFFFC
FFFFFE
F0003E
F0001F
F0000F
F0000F
F0000F
F0000F
F0000F
F0000F
F0000F
F0000F
F0000F
F0000F
F0000F
F0000F
F0000F
F0000F
F0000F
F0000F
F0000F
F0000F
F0000F
F0000F
F0000F
F0000F
F0000F
F0000F
F0000F
F0000F
F0000F
F0000F
F0001F
F0003E
FFFFFE
FFFFFC
FFFFF8
FFFFE0
ENDCHAR
STARTCHAR LATIN
ENCODING 69
SWIDTH 500 0
DWIDTH 32 0
BBX 24 40 4 0
BITMAP
07FFFF
1FFFFF
3FFFFF
7FFFFF
7C0000
F80000
F00000
F00000
F00000
F00000
F00000
F00000
F00000
F00000
F00000
F00000
F00000
F00000
FFFFC0
FFFFC0
FFFFC0
FFFFC0
F00000
F00000
F00000
F00000
F00000
F00000
F00000
F00000
F00000
F00000
F00000
F00000
F80000
7C0000
7FFFFF
3FFFFF
1FFFFF
07FFFF
ENDCHAR
STARTCHAR LATIN
ENCODING 70
SWIDTH 500 0
DWIDTH 32 0
BBX 24 40 4 0
BITMAP
07FFFF
1FFFFF
3FFFFF
7FFFFF
7C0000
F80000
F00000
F00000
F00000
F00000
F00000
F00000
F00000
F00000
F00000
F00000
F00000
F00000
FFFFC0
FFFFC0
FFFFC0
FFFFC0
F00000
F00000
F00000
F00000
F00000
F00000
F00000
F00000
F00000
F00000
F00000
F00000
F00000
F00000
F00000
F00000
F00000
F00000
ENDCHAR
STARTCHAR LATIN
ENCODING 71
SWIDTH 500 0
DWIDTH 32 0
BBX 24 40 4 0
BITMAP
07FFFF
1FFFFF
3FFFFF
7FFFFF
7C0000
F80000
F00000
F00000
F00000
F00000
F00000
F00000
F00000
F00000
F00000
F00000
F00000
F00000
F00FFF
F00FFF
F00FFF
F00FFF
F0000F
F0000F
F0000F
F0000F
F0000F
F0000F
F0000F
F0000F
F0000F
F0000F
F0000F
F0000F
F8000F
7C000F
7FFFFF
3FFFFF
1FFFFF
07FFFF
ENDCHAR
STARTCHAR LATIN
ENCODING 72
SWIDTH 500 0
DWIDTH 32 0
BBX 24 40 4 0
BITMAP
F0000F
F0000F
F0000F
F0000F
F0000F
F0000F
F0000F
F0000F
F0000F
F0000F
F0000F
F0000F
F0000F
F0000F
F0000F
F0000F
F0000F
F0000F
FFFFFF
FFFFFF
FFFFFF
FFFFFF
F0000F
F0000F
F0000F
F0000F
F0000F
F0000F
F0000F
F0000F
F0000F
F0000F
F0000F
F0000F
F0000F
F0000F
F0000F
F0000F
F0000F
F0000F
ENDCHAR
STARTCHAR LATIN
ENCODING 73
SWIDTH 500 0
DWIDTH 32 0
BBX 20 40 6 0
BITMAP
FFFFF0
FFFFF0
FFFFF0
FFFFF0
00F000
00F000
00F000
00F000
00F000
00F000
00F000
00F000
00F000
00F000
00F000
00F000
00F000
00F000
00F000
00F000
00F000
00F000
00F000
00F000
00F000
00F000
00F000
00F000
00F000
00F000
00F000
00F000
00F000
00F000
00F000
00F000
FFFFF0
FFFFF0
FFFFF0
FFFFF0
ENDCHAR
STARTCHAR LATIN
ENCODING 74
SWIDTH 500 0
DWIDTH 32 0
BBX 24 40 2 0
BITMAP
0FFFFF
0FFFFF
0FFFFF
0FFFFF
000F00
000F00
000F00
000F00
000F00
000F00
000F00
000F00
000F00
000F00
000F00
000F00
000F00
000F00
000F00
000F00
000F00
000F00
000F00
000F00
000F00
000F00
000F00
000F00
000F00
000F00
000F00
000F00
000F00
000F00
001F00
003E00
FFFE00
FFFC00
FFF800
FFE000
ENDCHAR
STARTCHAR LATIN
ENCODING 75
SWIDTH 500 0
DWIDTH 32 0
BBX 24 40 4 0
BITMAP
F0000F
F0000F
F0000F
F0000F
F0000F
F0000F
F0000F
F0000F
F0000F
F0000F
F0000F
F0000F
F0000F
F0001F
F0003E
F0007C
F000F8
F001F0
FFFFE0
FFFFC0
FFFFC0
FFFFE0
F001F0
F000F8
F0007C
F0003E
F0001F
F0000F
F0000F
F0000F
F0000F
F0000F
F0000F
F0000F
F0000F
F0000F
F0000F
F0000F
F0000F
F0000F
ENDCHAR
STARTCHAR LATIN
ENCODING 76
SWIDTH 500 0
DWIDTH 32 0
BBX 24 40 4 0
BITMAP
F00000
F00000
F00000
F00000
F00000
F00000
F00000
F00000
F00000
F00000
F00000
F00000
F00000
F00000
F00000
F00000
F00000
F00000
F00000
F00000
F00000
F00000
F00000
F00000
F00000
F00000
F00000
F00000
F00000
F00000
F00000
F00000
F00000
F00000
F80000
7C0000
7FFFFF
3FFFFF
1FFFFF
07FFFF
ENDCHAR
STARTCHAR LATIN
ENCODING 77
SWIDTH 500 0
DWIDTH 32 0
BBX 24 40 4 0
BITMAP
F0000F
F8001F
FC003F
FE007F
FF00FF
FF81FF
FFC3FF
F7E7EF
F3FFCF
F1FF8F
F0FF0F
F07E0F
F03C0F
F0180F
F0000F
F0000F
F0000F
F0000F
F0000F
F0000F
F0000F
F0000F
F0000F
F0000F
F0000F
F0000F
F0000F
F0000F
F0000F
F0000F
F0000F
F0000F
F0000F
F0000F
F0000F
F0000F
F0000F
F0000F
F0000F
F0000F
ENDCHAR
STARTCHAR LATIN
ENCODING 78
SWIDTH 500 0
DWIDTH 32 0
BBX 24 40 4 0
BITMAP
F0000F
F0000F
F8000F
F8000F
FC000F
FC000F
FE000F
FE000F
FF000F
FF000F
FF800F
FF800F
F7C00F
F7C00F
F3E00F
F3E00F
F1F00F
F1F00F
F0F80F
F0F80F
F07C0F
F07C0F
F03E0F
F03E0F
F01F0F
F01F0F
F00F8F
F00F8F
F007CF
F007CF
F003EF
F003EF
F001FF
F001FF
F000FF
F000FF
F0007F
F0007F
F0003F
F0003F
ENDCHAR
STARTCHAR LATIN
ENCODING 79
SWIDTH 500 0
DWIDTH 32 0
BBX 24 40 4 0
BITMAP
07FFE0
1FFFF8
3FFFFC
7FFFFE
7C003E
F8001F
F0000F
F0000F
F0000F
F0000F
F0000F
F0000F
F0000F
F0000F
F0000F
F0000F
F0000F
F0000F
F0000F
F0000F
F0000F
F0000F
F0000F
F0000F
F0000F
F0000F
F0000F
F0000F
F0000F
F0000F
F0000F
F0000F
F0000F
F0000F
F8001F
7C003E
7FFFFE
3FFFFC
1FFFF8
07FFE0
ENDCHAR
STARTCHAR LATIN
ENCODING 80
SWIDTH 500 0
DWIDTH 32 0
BBX 24 40 4 0
BITMAP
FFFFE0
FFFFF8
FFFFFC
FFFFFE
F0003E
F0001F
F0000F
F0000F
F0000F
F0000F
F0000F
F0000F
F0000F
F0000F
F0000F
F0000F
F0001F
F0003E
FFFFFE
FFFFFC
FFFFF8
FFFFE0
F00000
F00000
F00000
F00000
F00000
F00000
F00000
F00000
F00000
F00000
F00000
F00000
F00000
F00000
F00000
F00000
F00000
F00000
ENDCHAR
STARTCHAR LATIN
ENCODING 81
SWIDTH 500 0
DWIDTH 32 0
BBX 24 48 4 -8
BITMAP
07FFE0
1FFFF8
3FFFFC
7FFFFE
7C003E
F8001F
F0000F
F0000F
F0000F
F0000F
F0000F
F0000F
F0000F
F0000F
F0000F
F0000F
F0000F
F0000F
F0000F
F0000F
F0000F
F0000F
F0000F
F0000F
F0000F
F0000F
F0000F
F0000F
F03C0F
F03C0F
F03E0F
F03E0F
F01F0F
F01F0F
F80F9F
7C0FBE
7FFFFE
3FFFFC
1FFFF8
07FFE0
0001F0
0001F0
0000F8
0000F8
00007C
00007C
00003C
00003C
ENDCHAR
STARTCHAR LATIN
ENCODING 82
SWIDTH 500 0
DWIDTH 32 0
BBX 24 40 4 0
BITMAP
FFFFE0
FFFFF8
FFFFFC
FFFFFE
F0003E
F0001F
F0000F
F0000F
F0000F
F0000F
F0000F
F0000F
F0000F
F0000F
F0000F
F0001F
F0003E
F0007C
FFFFF8
FFFFF0
FFFFF0
FFFFF8
F0007C
F0003E
F0001F
F0000F
F0000F
F0000F
F0000F
F0000F
F0000F
F0000F
F0000F
F0000F
F0000F
F0000F
F0000F
F0000F
F0000F
F0000F
ENDCHAR
STARTCHAR LATIN
ENCODING 83
SWIDTH 500 0
DWIDTH 32 0
BBX 24 40 4 0
BITMAP
07FFFF
1FFFFF
3FFFFF
7FFFFF
7C0000
F80000
F00000
F00000
F00000
F00000
F00000
F00000
F00000
F00000
F00000
F00000
F80000
7C0000
7FFFE0
3FFFF8
1FFFFC
07FFFE
00003E
00001F
00000F
00000F
00000F
00000F
00000F
00000F
00000F
00000F
00000F
00000F
00001F
00003E
FFFFFE
FFFFFC
FFFFF8
FFFFE0
ENDCHAR
STARTCHAR LATIN
ENCODING 84
SWIDTH 500 0
DWIDTH 32 0
BBX 28 40 2 0
BITMAP
FFFFFFF0
FFFFFFF0
FFFFFFF0
FFFFFFF0
000F0000
000F0000
000F0000
000F0000
000F0000
000F0000
000F0000
000F0000
000F0000
000F0000
000F0000
000F0000
000F0000
000F0000
000F0000
000F0000
000F0000
000F0000
000F0000
000F0000
000F0000
000F0000
000F0000
000F0000
000F0000
000F0000
000F0000
000F0000
000F0000
000F0000
000F0000
000F0000
000F0000
000F0000
000F0000
000F0000
ENDCHAR
STARTCHAR LATIN
ENCODING 85
SWIDTH 500 0
DWIDTH 32 0
BBX 24 40 4 0
BITMAP
F0000F
F0000F
F0000F
F0000F
F0000F
F0000F
F0000F
F0000F
F0000F
F0000F
F0000F
F0000F
F0000F
F0000F
F0000F
F0000F
F0000F
F0000F
F0000F
F0000F
F0000F
F0000F
F0000F
F0000F
F0000F
F0000F
F0000F
F0000F
F0000F
F0000F
F0000F
F0000F
F0000F
F0000F
F8000F
7C000F
7FFFFF
3FFFFF
1FFFFF
07FFFF
ENDCHAR
STARTCHAR LATIN
ENCODING 86
SWIDTH 500 0
DWIDTH 32 0
BBX 24 40 4 0
BITMAP
F0000F
F0000F
F0000F
F0000F
F0000F
F0000F
F0000F
F0000F
F0000F
F0000F
F0000F
F0000F
F0000F
F0000F
F0000F
F0000F
F0000F
F0000F
F0000F
F0000F
F0000F
F0000F
F0000F
F0000F
F0000F
F0000F
F0000F
F0000F
F0000F
F8001F
7C003E
3E007C
1F00F8
0F81F0
07C3E0
03E7C0
01FF80
00FF00
007E00
003C00
ENDCHAR
STARTCHAR LATIN
ENCODING 87
SWIDTH 500 0
DWIDTH 32 0
BBX 24 40 4 0
BITMAP
F0000F
F0000F
F0000F
F0000F
F0000F
F0000F
F0000F
F0000F
F0000F
F0000F
F0000F
F0000F
F0000F
F0000F
F0000F
F0000F
F0000F
F0000F
F0000F
F0000F
F0000F
F0000F
F0000F
F0000F
F0000F
F0000F
F0180F
F03C0F
F07E0F
F0FF0F
F1FF8F
F3FFCF
F7E7EF
FFC3FF
FF81FF
FF00FF
FE007F
FC003F
F8001F
F0000F
ENDCHAR
STARTCHAR LATIN
ENCODING 88
SWIDTH 500 0
DWIDTH 32 0
BBX 24 40 4 0
BITMAP
F0000F
F0000F
F0000F
F0000F
F0000F
F0000F
F0000F
F0000F
F0000F
F0000F
F0000F
F0000F
F0000F
F0000F
F8001F
7C003E
3E007C
1F00F8
0FFFF0
07FFE0
07FFE0
0FFFF0
1F00F8
3E007C
7C003E
F8001F
F0000F
F0000F
F0000F
F0000F
F0000F
F0000F
F0000F
F0000F
F0000F
F0000F
F0000F
F0000F
F0000F
F0000F
ENDCHAR
STARTCHAR LATIN
ENCODING 89
SWIDTH 500 0
DWIDTH 32 0
BBX 24 40 4 0
BITMAP
F0000F
F0000F
F0000F
F0000F
F0000F
F0000F
F0000F
F0000F
F0000F
F0000F
F0000F
F0000F
F0000F
F0000F
F0000F
F0000F
F8000F
7C000F
7FFFFF
3FFFFF
1FFFFF
07FFFF
00000F
00000F
00000F
00000F
00000F
00000F
00000F
00000F
00000F
00000F
00000F
00000F
00001F
00003E
FFFFFE
FFFFFC
FFFFF8
FFFFE0
ENDCHAR
STARTCHAR LATIN
ENCODING 90
SWIDTH 500 0
DWIDTH 32 0
BBX 24 40 4 0
BITMAP
FFFFFF
FFFFFF
FFFFFF
FFFFFF
00000F
00000F
00000F
00000F
00000F
00000F
00000F
00001F
00003E
00007C
0000F8
0001F0
0003E0
0007C0
000F80
001F00
003E00
007C00
00F800
01F000
03E000
07C000
0F8000
1F0000
3E0000
7C0000
F80000
F00000
F00000
F00000
F00000
F00000
FFFFFF
FFFFFF
FFFFFF
FFFFFF
ENDCHAR
STARTCHAR LEFT
ENCODING 91
SWIDTH 500 0
DWIDTH 32 0
BBX 20 56 8 -8
BITMAP
FFFFF0
FFFFF0
FFFFF0
FFFFF0
F00000
F00000
F00000
F00000
F00000
F00000
F00000
F00000
F00000
F00000
F00000
F00000
F00000
F00000
F00000
F00000
F00000
F00000
F00000
F00000
F00000
F00000
F00000
F00000
F00000
F00000
F00000
F00000
F00000
F00000
F00000
F00000
F00000
F00000
F00000
F00000
F00000
F00000
F00000
F00000
F00000
F00000
F00000
F00000
F00000
F00000
F00000
F00000
FFFFF0
FFFFF0
FFFFF0
FFFFF0
ENDCHAR
STARTCHAR REVERSE
ENCODING 92
SWIDTH 500 0
DWIDTH 32 0
BBX 28 52 2 -6
BITMAP
F0000000
F0000000
F8000000
F8000000
7C000000
7C000000
3E000000
3E000000
1F000000
1F000000
0F800000
0F800000
07C00000
07C00000
03E00000
03E00000
01F00000
01F00000
00F80000
00F80000
007C0000
007C0000
003E0000
003E0000
001F0000
001F0000
000F8000
000F8000
0007C000
0007C000
0003E000
0003E000
0001F000
0001F000
0000F800
0000F800
00007C00
00007C00
00003E00
00003E00
00001F00
00001F00
00000F80
00000F80
000007C0
000007C0
000003E0
000003E0
000001F0
000001F0
000000F0
000000F0
ENDCHAR
STARTCHAR RIGHT
ENCODING 93
SWIDTH 500 0
DWIDTH 32 0
BBX 20 56 4 -8
BITMAP
FFFFF0
FFFFF0
FFFFF0
FFFFF0
0000F0
0000F0
0000F0
0000F0
0000F0
0000F0
0000F0
0000F0
0000F0
0000F0
0000F0
0000F0
0000F0
0000F0
0000F0
0000F0
0000F0
0000F0
0000F0
0000F0
0000F0
0000F0
0000F0
0000F0
0000F0
0000F0
0000F0
0000F0
0000F0
0000F0
0000F0
0000F0
0000F0
0000F0
0000F0
0000F0
0000F0
0000F0
0000F0
0000F0
0000F0
0000F0
0000F0
0000F0
0000F0
0000F0
0000F0
0000F0
FFFFF0
FFFFF0
FFFFF0
FFFFF0
ENDCHAR
STARTCHAR CIRCUMFLEX
ENCODING 94
SWIDTH 500 0
DWIDTH 32 0
BBX 28 16 2 28
BITMAP
000F0000
001F8000
003FC000
007FE000
00FFF000
01FFF800
03F0FC00
07E07E00
0FC03F00
1F801F80
3F000FC0
7E0007E0
FC0003F0
F80001F0
F00000F0
E0000070
ENDCHAR
STARTCHAR LOW
ENCODING 95
SWIDTH 500 0
DWIDTH 32 0
BBX 28 4 2 -8
BITMAP
FFFFFFF0
FFFFFFF0
FFFFFFF0
FFFFFFF0
ENDCHAR
STARTCHAR GRAVE
ENCODING 96
SWIDTH 500 0
DWIDTH 32 0
BBX 12 12 10 32
BITMAP
E000
F000
F800
FC00
7E00
3F00
1F80
0FC0
07E0
03F0
01F0
00F0
ENDCHAR
STARTCHAR LATIN
ENCODING 97
SWIDTH 500 0
DWIDTH 32 0
BBX 24 28 4 0
BITMAP
3FFFE0
3FFFF8
3FFFFC
3FFFFE
00003E
00001F
00000F
00000F
00000F
00000F
07FFFF
1FFFFF
3FFFFF
7FFFFF
7C000F
F8000F
F0000F
F0000F
F0000F
F0000F
F0000F
F0000F
F8000F
7C000F
7FFFFF
3FFFFF
1FFFFF
07FFFF
ENDCHAR
STARTCHAR LATIN
ENCODING 98
SWIDTH 500 0
DWIDTH 32 0
BBX 24 40 4 0
BITMAP
F00000
F00000
F00000
F00000
F00000
F00000
F00000
F00000
F00000
F00000
F00000
F00000
FFFFE0
FFFFF8
FFFFFC
FFFFFE
F0003E
F0001F
F0000F
F0000F
F0000F
F0000F
F0000F
F0000F
F0000F
F0000F
F0000F
F0000F
F0000F
F0000F
F0000F
F0000F
F0000F
F0000F
F0001F
F0003E
FFFFFE
FFFFFC
FFFFF8
FFFFE0
ENDCHAR
STARTCHAR LATIN
ENCODING 99
SWIDTH 500 0
DWIDTH 32 0
BBX 24 28 4 0
BITMAP
07FFFF
1FFFFF
3FFFFF
7FFFFF
7C0000
F80000
F00000
F00000
F00000
F00000
F00000
F00000
F00000
F00000
F00000
F00000
F00000
F00000
F00000
F00000
F00000
F00000
F80000
7C0000
7FFFFF
3FFFFF
1FFFFF
07FFFF
ENDCHAR
STARTCHAR LATIN
ENCODING 100
SWIDTH 500 0
DWIDTH 32 0
BBX 24 40 4 0
BITMAP
00000F
00000F
00000F
00000F
00000F
00000F
00000F
00000F
00000F
00000F
00000F
00000F
07FFFF
1FFFFF
3FFFFF
7FFFFF
7C000F
F8000F
F0000F
F0000F
F0000F
F0000F
F0000F
F0000F
F0000F
F0000F
F0000F
F0000F
F0000F
F0000F
F0000F
F0000F
F0000F
F0000F
F8000F
7C000F
7FFFFF
3FFFFF
1FFFFF
07FFFF
ENDCHAR
STARTCHAR LATIN
ENCODING 101
SWIDTH 500 0
DWIDTH 32 0
BBX 24 28 4 0
BITMAP
07FFFF
1FFFFF
3FFFFF
7FFFFF
7C000F
F8000F
F0000F
F0000F
F0000F
F0000F
F0000F
F0000F
FFFFFF
FFFFFF
FFFFFF
FFFFFF
F00000
F00000
F00000
F00000
F00000
F00000
F80000
7C0000
7FFFFF
3FFFFF
1FFFFF
07FFFF
ENDCHAR
STARTCHAR LATIN
ENCODING 102
SWIDTH 500 0
DWIDTH 32 0
BBX 20 40 6 0
BITMAP
007FF0
01FFF0
03FFF0
07FFF0
07C000
0F8000
0F0000
0F0000
0F0000
0F0000
0F0000
0F0000
0F0000
0F0000
0F0000
0F0000
FFFF00
FFFF00
FFFF00
FFFF00
0F0000
0F0000
0F0000
0F0000
0F0000
0F0000
0F0000
0F0000
0F0000
0F0000
0F0000
0F0000
0F0000
0F0000
0F0000
0F0000
0F0000
0F0000
0F0000
0F0000
ENDCHAR
STARTCHAR LATIN
ENCODING 103
SWIDTH 500 0
DWIDTH 32 0
BBX 24 40 4 -12
BITMAP
07FFFF
1FFFFF
3FFFFF
7FFFFF
7C000F
F8000F
F0000F
F0000F
F0000F
F0000F
F0000F
F0000F
F0000F
F0000F
F0000F
F0000F
F0000F
F0000F
F0000F
F0000F
F0000F
F0000F
F8001E
7C003C
7FFFF8
3FFFF0
1FFFF0
07FFF8
00003C
00001E
00000F
00000F
00000F
00000F
00001F
00003E
FFFFFE
FFFFFC
FFFFF8
FFFFE0
ENDCHAR
STARTCHAR LATIN
ENCODING 104
SWIDTH 500 0
DWIDTH 32 0
BBX 24 40 4 0
BITMAP
F00000
F00000
F00000
F00000
F00000
F00000
F00000
F00000
F00000
F00000
F00000
F00000
FFFFE0
FFFFF8
FFFFFC
FFFFFE
F0003E
F0001F
F0000F
F0000F
F0000F
F0000F
F0000F
F0000F
F0000F
F0000F
F0000F
F0000F
F0000F
F0000F
F0000F
F0000F
F0000F
F0000F
F0000F
F0000F
F0000F
F0000F
F0000F
F0000F
ENDCHAR
STARTCHAR LATIN
ENCODING 105
SWIDTH 500 0
DWIDTH 32 0
BBX 4 40 14 0
BITMAP
F0
F0
F0
F0
F0
F0
00
00
00
00
00
00
F0
F0
F0
F0
F0
F0
F0
F0
F0
F0
F0
F0
F0
F0
F0
F0
F0
F0
F0
F0
F0
F0
F0
F0
F0
F0
F0
F0
ENDCHAR
STARTCHAR LATIN
ENCODING 106
SWIDTH 500 0
DWIDTH 32 0
BBX 12 52 6 -12
BITMAP
00F0
00F0
00F0
00F0
00F0
00F0
0000
0000
0000
0000
0000
0000
00F0
00F0
00F0
00F0
00F0
00F0
00F0
00F0
00F0
00F0
00F0
00F0
00F0
00F0
00F0
00F0
00F0
00F0
00F0
00F0
00F0
00F0
00F0
00F0
00F0
00F0
00F0
00F0
00F0
00F0
00F0
00F0
00F0
00F0
01F0
03E0
FFE0
FFC0
FF80
FE00
ENDCHAR
STARTCHAR LATIN
ENCODING 107
SWIDTH 500 0
DWIDTH 32 0
BBX 22 40 4 0
BITMAP
F00000
F00000
F00000
F00000
F00000
F00000
F00000
F00000
F00000
F00000
F00000
F00000
F001C0
F003C0
F007C0
F00F80
F01F00
F03E00
F07C00
F0F800
F1F000
F3E000
FFC000
FFC000
FFC000
FFC000
F3E000
F1F000
F0F800
F07C00
F03E00
F01F00
F00F80
F007C0
F003E0
F001F0
F000F8
F0007C
F0003C
F0003C
ENDCHAR
STARTCHAR LATIN
ENCODING 108
SWIDTH 500 0
DWIDTH 32 0
BBX 16 40 10 0
BITMAP
F000
F000
F000
F000
F000
F000
F000
F000
F000
F000
F000
F000
F000
F000
F000
F000
F000
F000
F000
F000
F000
F000
F000
F000
F000
F000
F000
F000
F000
F000
F000
F000
F000
F000
F800
7C00
7FFF
3FFF
1FFF
07FF
ENDCHAR
STARTCHAR LATIN
ENCODING 109
SWIDTH 500 0
DWIDTH 32 0
BBX 24 28 4 0
BITMAP
FFC3E0
FFC3F8
FFC3FC
FFC3FE
F03C3E
F03C1F
F03C0F
F03C0F
F03C0F
F03C0F
F03C0F
F03C0F
F03C0F
F03C0F
F03C0F
F03C0F
F03C0F
F03C0F
F03C0F
F03C0F
F0000F
F0000F
F0000F
F0000F
F0000F
F0000F
F0000F
F0000F
ENDCHAR
STARTCHAR LATIN
ENCODING 110
SWIDTH 500 0
DWIDTH 32 0
BBX 24 28 4 0
BITMAP
FFFFE0
FFFFF8
FFFFFC
FFFFFE
F0003E
F0001F
F0000F
F0000F
F0000F
F0000F
F0000F
F0000F
F0000F
F0000F
F0000F
F0000F
F0000F
F0000F
F0000F
F0000F
F0000F
F0000F
F0000F
F0000F
F0000F
F0000F
F0000F
F0000F
ENDCHAR
STARTCHAR LATIN
ENCODING 111
SWIDTH 500 0
DWIDTH 32 0
BBX 24 28 4 0
BITMAP
07FFE0
1FFFF8
3FFFFC
7FFFFE
7C003E
F8001F
F0000F
F0000F
F0000F
F0000F
F0000F
F0000F
F0000F
F0000F
F0000F
F0000F
F0000F
F0000F
F0000F
F0000F
F0000F
F0000F
F8001F
7C003E
7FFFFE
3FFFFC
1FFFF8
07FFE0
ENDCHAR
STARTCHAR LATIN
ENCODING 112
SWIDTH 500 0
DWIDTH 32 0
BBX 24 40 4 -12
BITMAP
FFFFE0
FFFFF8
FFFFFC
FFFFFE
F0003E
F0001F
F0000F
F0000F
F0000F
F0000F
F0000F
F0000F
F0000F
F0000F
F0000F
F0000F
F0000F
F0000F
F0000F
F0000F
F0000F
F0000F
F0001F
F0003E
FFFFFE
FFFFFC
FFFFF8
FFFFE0
F00000
F00000
F00000
F00000
F00000
F00000
F00000
F00000
F00000
F00000
F00000
F00000
ENDCHAR
STARTCHAR LATIN
ENCODING 113
SWIDTH 500 0
DWIDTH 32 0
BBX 24 40 4 -12
BITMAP
07FFFF
1FFFFF
3FFFFF
7FFFFF
7C000F
F8000F
F0000F
F0000F
F0000F
F0000F
F0000F
F0000F
F0000F
F0000F
F0000F
F0000F
F0000F
F0000F
F0000F
F0000F
F0000F
F0000F
F8000F
7C000F
7FFFFF
3FFFFF
1FFFFF
07FFFF
00000F
00000F
00000F
00000F
00000F
00000F
00000F
00000F
00000F
00000F
00000F
00000F
ENDCHAR
STARTCHAR LATIN
ENCODING 114
SWIDTH 500 0
DWIDTH 32 0
BBX 24 28 4 0
BITMAP
07FFFF
1FFFFF
3FFFFF
7FFFFF
7C000F
F8000F
F0000F
F0000F
F00000
F00000
F00000
F00000
F00000
F00000
F00000
F00000
F00000
F00000
F00000
F00000
F00000
F00000
F00000
F00000
F00000
F00000
F00000
F00000
ENDCHAR
STARTCHAR LATIN
ENCODING 115
SWIDTH 500 0
DWIDTH 32 0
BBX 24 28 4 0
BITMAP
07FFFF
1FFFFF
3FFFFF
7FFFFF
7C0000
F80000
F00000
F00000
F00000
F00000
F80000
7C0000
7FFFE0
3FFFF8
1FFFFC
07FFFE
00003E
00001F
00000F
00000F
00000F
00000F
00001F
00003E
FFFFFE
FFFFFC
FFFFF8
FFFFE0
ENDCHAR
STARTCHAR LATIN
ENCODING 116
SWIDTH 500 0
DWIDTH 32 0
BBX 20 40 6 0
BITMAP
0F0000
0F0000
0F0000
0F0000
0F0000
0F0000
0F0000
0F0000
0F0000
0F0000
0F0000
0F0000
FFFF00
FFFF00
FFFF00
FFFF00
0F0000
0F0000
0F0000
0F0000
0F0000
0F0000
0F0000
0F0000
0F0000
0F0000
0F0000
0F0000
0F0000
0F0000
0F0000
0F0000
0F0000
0F0000
0F8000
07C000
07FFF0
03FFF0
01FFF0
007FF0
ENDCHAR
STARTCHAR LATIN
ENCODING 117
SWIDTH 500 0
DWIDTH 32 0
BBX 24 28 4 0
BITMAP
F0000F
F0000F
F0000F
F0000F
F0000F
F0000F
F0000F
F0000F
F0000F
F0000F
F0000F
F0000F
F0000F
F0000F
F0000F
F0000F
F0000F
F0000F
F0000F
F0000F
F0000F
F0000F
F8000F
FC000F
7FFFFF
3FFFFF
1FFFFF
0FFFFF
ENDCHAR
STARTCHAR LATIN
ENCODING 118
SWIDTH 500 0
DWIDTH 32 0
BBX 24 28 4 0
BITMAP
F0000F
F0000F
F0000F
F0000F
F0000F
F0000F
F0000F
F0000F
F0000F
F0000F
F0000F
F0000F
F0000F
F0000F
F0000F
F0000F
F0000F
F8001F
7C003E
3E007C
1F00F8
0F81F0
07C3E0
03E7C0
01FF80
00FF00
007E00
003C00
ENDCHAR
STARTCHAR LATIN
ENCODING 119
SWIDTH 500 0
DWIDTH 32 0
BBX 24 28 4 0
BITMAP
F0000F
F0000F
F0000F
F0000F
F0000F
F0000F
F0000F
F0000F
F03C0F
F03C0F
F03C0F
F03C0F
F03C0F
F03C0F
F03C0F
F03C0F
F03C0F
F03C0F
F03C0F
F03C0F
F03C0F
F03C0F
F83C0F
7C3C0F
7FC3FF
3FC3FF
1FC3FF
07C3FF
ENDCHAR
STARTCHAR LATIN
ENCODING 120
SWIDTH 500 0
DWIDTH 32 0
BBX 24 28 4 0
BITMAP
F0000F
F0000F
F0000F
F8001F
7C003E
3E007C
1F00F8
0F81F0
07C3E0
03E7C0
01FF80
00FF00
00FF00
01FF80
03E7C0
07C3E0
0F81F0
1F00F8
3E007C
3C003C
7C003E
7C003E
F8001F
F8001F
F0000F
F0000F
F0000F
F0000F
ENDCHAR
STARTCHAR LATIN
ENCODING 121
SWIDTH 500 0
DWIDTH 32 0
BBX 24 40 4 -12
BITMAP
F0000F
F0000F
F0000F
F0000F
F0000F
F0000F
F0000F
F0000F
F0000F
F0000F
F0000F
F0000F
F0000F
F0000F
F0000F
F0000F
F0000F
F0000F
F0000F
F0000F
F0000F
F0000F
F8000F
7C000F
7FFFFF
3FFFFF
1FFFFF
07FFFF
00000F
00000F
00000F
00000F
00000F
00000F
00001F
00003E
FFFFFE
FFFFFC
FFFFF8
FFFFE0
ENDCHAR
STARTCHAR LATIN
ENCODING 122
SWIDTH 500 0
DWIDTH 32 0
BBX 24 28 4 0
BITMAP
FFFFFF
FFFFFF
FFFFFF
FFFFFF
00000F
00001F
00003E
00007C
0000F8
0001F0
0003E0
0007C0
000F80
001F00
003E00
007C00
00F800
01F000
03E000
07C000
0F8000
1F0000
3E0000
7C0000
FFFFFF
FFFFFF
FFFFFF
FFFFFF
ENDCHAR
STARTCHAR LEFT
ENCODING 123
SWIDTH 500 0
DWIDTH 32 0
BBX 24 56 4 -8
BITMAP
0007FF
001FFF
003FFF
007FFF
007C00
00F800
00F000
00F000
00F000
00F000
00F000
00F000
00F000
00F000
00F000
00F000
00F000
00F000
00F000
00F000
00F000
01F000
03F000
07E000
FFC000
FF8000
FF0000
FF0000
FF0000
FF0000
FF8000
FFC000
07E000
03F000
01F000
00F000
00F000
00F000
00F000
00F000
00F000
00F000
00F000
00F000
00F000
00F000
00F000
00F000
00F000
00F000
00F800
007C00
007FFF
003FFF
001FFF
0007FF
ENDCHAR
STARTCHAR VERTICAL
ENCODING 124
SWIDTH 500 0
DWIDTH 32 0
BBX 4 48 14 -4
BITMAP
F0
F0
F0
F0
F0
F0
F0
F0
F0
F0
F0
F0
F0
F0
F0
F0
F0
F0
F0
F0
F0
F0
F0
F0
F0
F0
F0
F0
F0
F0
F0
F0
F0
F0
F0
F0
F0
F0
F0
F0
F0
F0
F0
F0
F0
F0
F0
F0
ENDCHAR
STARTCHAR RIGHT
ENCODING 125
SWIDTH 500 0
DWIDTH 32 0
BBX 24 56 4 -8
BITMAP
FFE000
FFF800
FFFC00
FFFE00
003E00
001F00
000F00
000F00
000F00
000F00
000F00
000F00
000F00
000F00
000F00
000F00
000F00
000F00
000F00
000F00
000F00
000F80
000FC0
0007E0
0003FF
0001FF
0000FF
0000FF
0000FF
0000FF
0001FF
0003FF
0007E0
000FC0
000F80
000F00
000F00
000F00
000F00
000F00
000F00
000F00
000F00
000F00
000F00
000F00
000F00
000F00
000F00
000F00
001F00
003E00
FFFE00
FFFC00
FFF800
FFE000
ENDCHAR
STARTCHAR TILDE
ENCODING 126
SWIDTH 500 0
DWIDTH 32 0
BBX 24 10 4 34
BITMAP
07800F
1FE00F
3FF00F
7FF80F
FCFC1F
F87E3F
F03FFE
F01FFC
F00FF8
F003E0
ENDCHAR
STARTCHAR control
ENCODING 127
SWIDTH 500 0
DWIDTH 32 0
BBX 1 1 31 -12
BITMAP
00
ENDCHAR
STARTCHAR NO-BREAK
ENCODING 160
SWIDTH 500 0
DWIDTH 32 0
BBX 1 1 31 -12
BITMAP
00
ENDCHAR
STARTCHAR INVERTED
ENCODING 161
SWIDTH 500 0
DWIDTH 32 0
BBX 4 40 14 0
BITMAP
F0
F0
F0
F0
00
00
00
00
00
00
00
00
F0
F0
F0
F0
F0
F0
F0
F0
F0
F0
F0
F0
F0
F0
F0
F0
F0
F0
F0
F0
F0
F0
F0
F0
F0
F0
F0
F0
ENDCHAR
STARTCHAR CENT
ENCODING 162
SWIDTH 500 0
DWIDTH 32 0
BBX 24 36 4 -4
BITMAP
000F00
000F00
000F00
000F00
07FFFF
1FFFFF
3FFFFF
7FFFFF
7C0F00
F80F00
F00F00
F00F00
F00F00
F00F00
F00F00
F00F00
F00F00
F00F00
F00F00
F00F00
F00F00
F00F00
F00F00
F00F00
F00F00
F00F00
F80F00
7C0F00
7FFFFF
3FFFFF
1FFFFF
07FFFF
000F00
000F00
000F00
000F00
ENDCHAR
STARTCHAR POUND
ENCODING 163
SWIDTH 500 0
DWIDTH 32 0
BBX 24 40 4 0
BITMAP
007F80
01FFE0
03FFF0
07FFF8
07C0F8
0F807C
0F003C
0F003C
0F0000
0F0000
0F0000
0F0000
0F0000
0F0000
0F0000
0F0000
0F0000
0F0000
FFFFF0
FFFFF0
FFFFF0
FFFFF0
0F0000
0F0000
0F0000
0F0000
0F0000
0F0000
0F0000
0F0000
0F0000
0F0000
1E0000
1E0000
3C0000
3C0000
FFFFFF
FFFFFF
FFFFFF
FFFFFF
ENDCHAR
STARTCHAR CURRENCY
ENCODING 164
SWIDTH 500 0
DWIDTH 32 0
BBX 20 28 6 6
BITMAP
FC03F0
7E07E0
3F0FC0
1F9F80
0FFF00
1FFF80
3FFFC0
7FFFE0
FC03F0
F801F0
F000F0
F000F0
F000F0
F000F0
F000F0
F000F0
F000F0
F000F0
F801F0
FC03F0
7FFFE0
3FFFC0
1FFF80
0FFF00
1F9F80
3F0FC0
7E07E0
FC03F0
ENDCHAR
STARTCHAR YEN
ENCODING 165
SWIDTH 500 0
DWIDTH 32 0
BBX 24 40 4 0
BITMAP
F0000F
F0000F
78001E
78001E
3C003C
3C003C
1E0078
1E0078
0F00F0
0F00F0
0781E0
0781E0
03C3C0
03C3C0
01E780
01E780
00FF00
00FF00
007E00
007E00
003C00
003C00
003C00
003C00
3FFFFC
3FFFFC
3FFFFC
3FFFFC
003C00
003C00
003C00
003C00
3FFFFC
3FFFFC
3FFFFC
3FFFFC
003C00
003C00
003C00
003C00
ENDCHAR
STARTCHAR BROKEN
ENCODING 166
SWIDTH 500 0
DWIDTH 32 0
BBX 4 48 14 -4
BITMAP
F0
F0
F0
F0
F0
F0
F0
F0
F0
F0
F0
F0
F0
F0
F0
F0
F0
F0
F0
F0
00
00
00
00
00
00
00
00
F0
F0
F0
F0
F0
F0
F0
F0
F0
F0
F0
F0
F0
F0
F0
F0
F0
F0
F0
F0
ENDCHAR
STARTCHAR SECTION
ENCODING 167
SWIDTH 500 0
DWIDTH 32 0
BBX 20 48 6 -4
BITMAP
07FC00
1FFF00
3FFF80
7FFF80
7C0FC0
F807C0
F00000
F00000
F00000
F00000
F80000
7C0000
7E0000
3F0000
1FFE00
1FFF80
3FFFC0
7FFFE0
7C03E0
F801F0
F000F0
F000F0
F000F0
F000F0
F000F0
F000F0
F000F0
F000F0
F801F0
7C03E0
7FFFE0
3FFFC0
1FFF80
07FF80
000FC0
0007E0
0003E0
0001F0
0000F0
0000F0
0000F0
0000F0
3E01F0
3F03E0
1FFFE0
1FFFC0
0FFF80
03FE00
ENDCHAR
STARTCHAR DIAERESIS
ENCODING 168
SWIDTH 500 0
DWIDTH 32 0
BBX 16 6 8 32
BITMAP
F00F
F00F
F00F
F00F
F00F
F00F
ENDCHAR
STARTCHAR COPYRIGHT
ENCODING 169
SWIDTH 500 0
DWIDTH 32 0
BBX 24 32 4 0
BITMAP
07FFE0
1FFFF8
3FFFFC
7FFFFE
7C003E
F8001F
F0000F
F0000F
F03FCF
F0FFCF
F1FFCF
F1FFCF
F3E00F
F3C00F
F3C00F
F3C00F
F3C00F
F3C00F
F3C00F
F3E00F
F1FFCF
F1FFCF
F0FFCF
F03FCF
F0000F
F0000F
F8001F
7C003E
7FFFFE
3FFFFC
1FFFF8
07FFE0
ENDCHAR
STARTCHAR FEMININE
ENCODING 170
SWIDTH 500 0
DWIDTH 32 0
BBX 16 28 8 16
BITMAP
3FE0
3FF8
3FFC
3FFE
003E
001F
000F
000F
0FFF
3FFF
7FFF
7FFF
F80F
F00F
F00F
F80F
7FFF
7FFF
3FFF
0FFF
0000
0000
0000
0000
FFFF
FFFF
FFFF
FFFF
ENDCHAR
STARTCHAR LEFT-POINTING
ENCODING 171
SWIDTH 500 0
DWIDTH 32 0
BBX 25 20 3 4
BITMAP
007E1F80
00FC3F00
01F87E00
03F0FC00
07E1F800
0FC3F000
1F87E000
3F0FC000
7E1F8000
FC3F0000
FC3F0000
7E1F8000
3F0FC000
1F87E000
0FC3F000
07E1F800
03F0FC00
01F87E00
00FC3F00
007E1F80
ENDCHAR
STARTCHAR NOT
ENCODING 172
SWIDTH 500 0
DWIDTH 32 0
BBX 24 16 4 12
BITMAP
FFFFFF
FFFFFF
FFFFFF
FFFFFF
00000F
00000F
00000F
00000F
00000F
00000F
00000F
00000F
00000F
00000F
00000F
00000F
ENDCHAR
STARTCHAR SOFT
ENCODING 173
SWIDTH 500 0
DWIDTH 32 0
BBX 20 4 6 16
BITMAP
FFFFF0
FFFFF0
FFFFF0
FFFFF0
ENDCHAR
STARTCHAR REGISTERED
ENCODING 174
SWIDTH 500 0
DWIDTH 32 0
BBX 24 32 4 4
BITMAP
07FFE0
1FFFF8
3FFFFC
7FFFFE
7C003E
F8001F
F0000F
F0000F
F3FF0F
F3FF8F
F3FFCF
F3FFCF
F3C3CF
F3C3CF
F3FFCF
F3FFCF
F3FF8F
F3FF0F
F3C78F
F3C3CF
F3C3CF
F3C3CF
F3C3CF
F3C3CF
F0000F
F0000F
F8001F
7C003E
7FFFFE
3FFFFC
1FFFF8
07FFE0
ENDCHAR
STARTCHAR MACRON
ENCODING 175
SWIDTH 500 0
DWIDTH 32 0
BBX 16 4 8 44
BITMAP
FFFF
FFFF
FFFF
FFFF
ENDCHAR
STARTCHAR DEGREE
ENCODING 176
SWIDTH 500 0
DWIDTH 32 0
BBX 16 18 8 24
BITMAP
07E0
1FF8
3FFC
7FFE
7C3E
F81F
F00F
F00F
F00F
F00F
F00F
F00F
F81F
7C3E
7FFE
3FFC
1FF8
07E0
ENDCHAR
STARTCHAR PLUS-MINUS
ENCODING 177
SWIDTH 500 0
DWIDTH 32 0
BBX 20 28 6 4
BITMAP
00F000
00F000
00F000
00F000
00F000
00F000
00F000
00F000
FFFFF0
FFFFF0
FFFFF0
FFFFF0
00F000
00F000
00F000
00F000
00F000
00F000
00F000
00F000
000000
000000
000000
000000
FFFFF0
FFFFF0
FFFFF0
FFFFF0
ENDCHAR
STARTCHAR SUPERSCRIPT
ENCODING 178
SWIDTH 500 0
DWIDTH 32 0
BBX 16 24 8 18
BITMAP
07E0
1FF8
3FFC
7FFE
F81E
F00F
000F
000F
000F
001E
003E
007C
00F8
01F0
03E0
07C0
0F80
1F00
3E0F
7C0F
FFFF
FFFF
FFFF
FFFF
ENDCHAR
STARTCHAR SUPERSCRIPT
ENCODING 179
SWIDTH 500 0
DWIDTH 32 0
BBX 16 24 8 18
BITMAP
07E0
1FF8
3FFC
7FFE
F81E
F00F
000F
000F
000F
001F
03FE
03FC
03FC
03FE
001F
000F
000F
000F
F00F
F81E
7FFE
3FFC
1FF8
07E0
ENDCHAR
STARTCHAR ACUTE
ENCODING 180
SWIDTH 500 0
DWIDTH 32 0
BBX 12 12 12 32
BITMAP
0070
00F0
01F0
03F0
07E0
0FC0
1F80
3F00
7E00
FC00
F800
F000
ENDCHAR
STARTCHAR MICRO
ENCODING 181
SWIDTH 500 0
DWIDTH 32 0
BBX 26 40 4 -12
BITMAP
F000F000
F000F000
F000F000
F000F000
F000F000
F000F000
F000F000
F000F000
F000F000
F000F000
F000F000
F000F000
F000F000
F000F000
F000F000
F000F000
F000F000
F000F000
F000F000
F000F000
F000F000
F000F000
F801F800
FC03FC00
FFFFFFC0
FFFFFFC0
F7FF9FC0
F1FE07C0
F0000000
F0000000
F0000000
F0000000
F0000000
F0000000
F0000000
F0000000
F0000000
F0000000
F0000000
F0000000
ENDCHAR
STARTCHAR PILCROW
ENCODING 182
SWIDTH 500 0
DWIDTH 32 0
BBX 24 40 4 0
BITMAP
07FFFF
1FFFFF
3FFFFF
7FFFFF
7C3C0F
F83C0F
F03C0F
F03C0F
F03C0F
F03C0F
F03C0F
F03C0F
F03C0F
F03C0F
F83C0F
7C3C0F
7FFC0F
3FFC0F
1FFC0F
07FC0F
003C0F
003C0F
003C0F
003C0F
003C0F
003C0F
003C0F
003C0F
003C0F
003C0F
003C0F
003C0F
003C0F
003C0F
003C0F
003C0F
003C0F
003C0F
003C0F
003C0F
ENDCHAR
STARTCHAR MIDDLE
ENCODING 183
SWIDTH 500 0
DWIDTH 32 0
BBX 4 6 14 18
BITMAP
F0
F0
F0
F0
F0
F0
ENDCHAR
STARTCHAR CEDILLA
ENCODING 184
SWIDTH 500 0
DWIDTH 32 0
BBX 8 12 10 -12
BITMAP
0F
0F
0F
0F
0F
0F
1F
3E
FE
FC
F8
E0
ENDCHAR
STARTCHAR SUPERSCRIPT
ENCODING 185
SWIDTH 500 0
DWIDTH 32 0
BBX 12 24 10 18
BITMAP
0F00
1F00
3F00
7F00
FF00
FF00
EF00
CF00
0F00
0F00
0F00
0F00
0F00
0F00
0F00
0F00
0F00
0F00
0F00
0F00
FFF0
FFF0
FFF0
FFF0
ENDCHAR
STARTCHAR MASCULINE
ENCODING 186
SWIDTH 500 0
DWIDTH 32 0
BBX 16 26 8 16
BITMAP
07E0
1FF8
3FFC
7FFE
7C3E
F81F
F00F
F00F
F00F
F00F
F00F
F00F
F81F
7C3E
7FFE
3FFC
1FF8
07E0
0000
0000
0000
0000
FFFF
FFFF
FFFF
FFFF
ENDCHAR
STARTCHAR RIGHT-POINTING
ENCODING 187
SWIDTH 500 0
DWIDTH 32 0
BBX 25 20 4 4
BITMAP
FC3F0000
7E1F8000
3F0FC000
1F87E000
0FC3F000
07E1F800
03F0FC00
01F87E00
00FC3F00
007E1F80
007E1F80
00FC3F00
01F87E00
03F0FC00
07E1F800
0FC3F000
1F87E000
3F0FC000
7E1F8000
FC3F0000
ENDCHAR
STARTCHAR VULGAR
ENCODING 188
SWIDTH 500 0
DWIDTH 32 0
BBX 28 56 2 -8
BITMAP
0F000000
1F000000
3F000000
7F000000
FF000000
FF000000
EF000000
CF000000
0F000000
0F000000
0F000000
0F000000
0F000000
0F000000
0F0000F0
0F0001F0
0F0003F0
0F0007F0
0F000FE0
0F001FC0
FFF03F80
FFF07F00
FFF0FE00
FFF1FC00
0003F800
0007F000
000FE000
001FC000
003F8000
007F0000
00FE0000
01FC0000
03F80000
07F00000
0FEF0000
1FCF0000
3F8F0000
7F0F0000
FE0F0F00
FC0F0F00
F80F0F00
F00F0F00
000F0F00
000F0F00
000F0F00
000F0F00
000FFFF0
000FFFF0
000FFFF0
000FFFF0
00000F00
00000F00
00000F00
00000F00
00000F00
00000F00
ENDCHAR
STARTCHAR VULGAR
ENCODING 189
SWIDTH 500 0
DWIDTH 32 0
BBX 28 56 2 -8
BITMAP
0F000000
1F000000
3F000000
7F000000
FF000000
FF000000
EF000000
CF000000
0F000000
0F000000
0F000000
0F000000
0F000000
0F000000
0F0000F0
0F0001F0
0F0003F0
0F0007F0
0F000FE0
0F001FC0
FFF03F80
FFF07F00
FFF0FE00
FFF1FC00
0003F800
0007F000
000FE000
001FC000
003F8000
007F0000
00FE0000
01FC0000
03F87E00
07F1FF80
0FE3FFC0
1FC7FFE0
3F8F81E0
7F0F00F0
FE0000F0
FC0000F0
F80000F0
F00001E0
000003E0
000007C0
00000F80
00001F00
00003E00
00007C00
0000F800
0001F000
0003E0F0
0007C0F0
000FFFF0
000FFFF0
000FFFF0
000FFFF0
ENDCHAR
STARTCHAR VULGAR
ENCODING 190
SWIDTH 500 0
DWIDTH 32 0
BBX 28 56 2 -8
BITMAP
07E00000
1FF80000
3FFC0000
7FFE0000
F81E0000
F00F0000
000F0000
000F0000
000F0000
001F0000
03FE0000
03FC0000
03FC0000
03FE0000
001F00F0
000F01F0
000F03F0
000F07F0
F00F0FE0
F81E1FC0
7FFE3F80
3FFC7F00
1FF8FE00
07E1FC00
0003F800
0007F000
000FE000
001FC000
003F8000
007F0000
00FE0000
01FC0000
03F80000
07F00000
0FEF0000
1FCF0000
3F8F0000
7F0F0000
FE0F0F00
FC0F0F00
F80F0F00
F00F0F00
000F0F00
000F0F00
000F0F00
000F0F00
000FFFF0
000FFFF0
000FFFF0
000FFFF0
00000F00
00000F00
00000F00
00000F00
00000F00
00000F00
ENDCHAR
STARTCHAR INVERTED
ENCODING 191
SWIDTH 500 0
DWIDTH 32 0
BBX 24 40 4 0
BITMAP
003C00
003C00
003C00
003C00
003C00
003C00
000000
000000
000000
000000
000000
000000
003C00
003C00
003C00
003C00
007800
007800
00F000
00F000
01E000
01E000
03C000
078000
0F0000
1E0000
3C0000
780000
F00000
F00000
F00000
F00000
F0000F
F0000F
F8001F
7C003E
7FFFFE
3FFFFC
1FFFF8
07FFE0
ENDCHAR
STARTCHAR LATIN
ENCODING 192
SWIDTH 500 0
DWIDTH 32 0
BBX 24 50 4 0
BITMAP
03E000
03F000
01F800
00FC00
007E00
003F00
001F80
000F80
000000
000000
07FFE0
1FFFF8
3FFFFC
7FFFFE
7C003E
F8001F
F0000F
F0000F
F0000F
F0000F
F0000F
F0000F
F0000F
F0000F
F0000F
F0000F
F0000F
F0000F
FFFFFF
FFFFFF
FFFFFF
FFFFFF
F0000F
F0000F
F0000F
F0000F
F0000F
F0000F
F0000F
F0000F
F0000F
F0000F
F0000F
F0000F
F0000F
F0000F
F0000F
F0000F
F0000F
F0000F
ENDCHAR
STARTCHAR LATIN
ENCODING 193
SWIDTH 500 0
DWIDTH 32 0
BBX 24 50 4 0
BITMAP
0007C0
000FC0
001F80
003F00
007E00
00FC00
01F800
01F000
000000
000000
07FFE0
1FFFF8
3FFFFC
7FFFFE
7C003E
F8001F
F0000F
F0000F
F0000F
F0000F
F0000F
F0000F
F0000F
F0000F
F0000F
F0000F
F0000F
F0000F
FFFFFF
FFFFFF
FFFFFF
FFFFFF
F0000F
F0000F
F0000F
F0000F
F0000F
F0000F
F0000F
F0000F
F0000F
F0000F
F0000F
F0000F
F0000F
F0000F
F0000F
F0000F
F0000F
F0000F
ENDCHAR
STARTCHAR LATIN
ENCODING 194
SWIDTH 500 0
DWIDTH 32 0
BBX 24 52 4 0
BITMAP
003C00
007E00
00FF00
01FF80
03FFC0
07E7E0
0FC3F0
0F81F0
000000
000000
000000
000000
07FFE0
1FFFF8
3FFFFC
7FFFFE
7C003E
F8001F
F0000F
F0000F
F0000F
F0000F
F0000F
F0000F
F0000F
F0000F
F0000F
F0000F
F0000F
F0000F
FFFFFF
FFFFFF
FFFFFF
FFFFFF
F0000F
F0000F
F0000F
F0000F
F0000F
F0000F
F0000F
F0000F
F0000F
F0000F
F0000F
F0000F
F0000F
F0000F
F0000F
F0000F
F0000F
F0000F
ENDCHAR
STARTCHAR LATIN
ENCODING 195
SWIDTH 500 0
DWIDTH 32 0
BBX 24 50 4 0
BITMAP
07E00F
1FF80F
3FFC1F
7FFE3F
FC7FFE
F83FFC
F01FF8
F007E0
000000
000000
07FFE0
1FFFF8
3FFFFC
7FFFFE
7C003E
F8001F
F0000F
F0000F
F0000F
F0000F
F0000F
F0000F
F0000F
F0000F
F0000F
F0000F
F0000F
F0000F
FFFFFF
FFFFFF
FFFFFF
FFFFFF
F0000F
F0000F
F0000F
F0000F
F0000F
F0000F
F0000F
F0000F
F0000F
F0000F
F0000F
F0000F
F0000F
F0000F
F0000F
F0000F
F0000F
F0000F
ENDCHAR
STARTCHAR LATIN
ENCODING 196
SWIDTH 500 0
DWIDTH 32 0
BBX 24 50 4 0
BITMAP
0F00F0
0F00F0
0F00F0
0F00F0
0F00F0
0F00F0
000000
000000
000000
000000
07FFE0
1FFFF8
3FFFFC
7FFFFE
7C003E
F8001F
F0000F
F0000F
F0000F
F0000F
F0000F
F0000F
F0000F
F0000F
F0000F
F0000F
F0000F
F0000F
FFFFFF
FFFFFF
FFFFFF
FFFFFF
F0000F
F0000F
F0000F
F0000F
F0000F
F0000F
F0000F
F0000F
F0000F
F0000F
F0000F
F0000F
F0000F
F0000F
F0000F
F0000F
F0000F
F0000F
ENDCHAR
STARTCHAR LATIN
ENCODING 197
SWIDTH 500 0
DWIDTH 32 0
BBX 24 50 4 0
BITMAP
003C00
007E00
00FF00
01FF80
03C3C0
03C3C0
03C3C0
03C3C0
01FF80
00FF00
07FFE0
1FFFF8
3FFFFC
7FFFFE
7C003E
F8001F
F0000F
F0000F
F0000F
F0000F
F0000F
F0000F
F0000F
F0000F
F0000F
F0000F
F0000F
F0000F
FFFFFF
FFFFFF
FFFFFF
FFFFFF
F0000F
F0000F
F0000F
F0000F
F0000F
F0000F
F0000F
F0000F
F0000F
F0000F
F0000F
F0000F
F0000F
F0000F
F0000F
F0000F
F0000F
F0000F
ENDCHAR
STARTCHAR LATIN
ENCODING 198
SWIDTH 500 0
DWIDTH 32 0
BBX 24 40 4 0
BITMAP
07FFFF
1FFFFF
3FFFFF
7FFFFF
7C0F00
F80F00
F00F00
F00F00
F00F00
F00F00
F00F00
F00F00
F00F00
F00F00
F00F00
F00F00
F00F00
F00F00
FFFFFF
FFFFFF
FFFFFF
FFFFFF
F00F00
F00F00
F00F00
F00F00
F00F00
F00F00
F00F00
F00F00
F00F00
F00F00
F00F00
F00F00
F00F00
F00F00
F00FFF
F00FFF
F00FFF
F00FFF
ENDCHAR
STARTCHAR LATIN
ENCODING 199
SWIDTH 500 0
DWIDTH 32 0
BBX 24 52 4 -12
BITMAP
07FFFF
1FFFFF
3FFFFF
7FFFFF
7C0000
F80000
F00000
F00000
F00000
F00000
F00000
F00000
F00000
F00000
F00000
F00000
F00000
F00000
F00000
F00000
F00000
F00000
F00000
F00000
F00000
F00000
F00000
F00000
F00000
F00000
F00000
F00000
F00000
F00000
F80000
7C0000
7FFFFF
3FFFFF
1FFFFF
07FFFF
000F00
000F00
000F00
000F00
000F00
000F00
001F00
003E00
00FE00
00FC00
00F800
00E000
ENDCHAR
STARTCHAR LATIN
ENCODING 200
SWIDTH 500 0
DWIDTH 32 0
BBX 24 50 4 0
BITMAP
03E000
03F000
01F800
00FC00
007E00
003F00
001F80
000F80
000000
000000
07FFFF
1FFFFF
3FFFFF
7FFFFF
7C0000
F80000
F00000
F00000
F00000
F00000
F00000
F00000
F00000
F00000
F00000
F00000
F00000
F00000
FFFFC0
FFFFC0
FFFFC0
FFFFC0
F00000
F00000
F00000
F00000
F00000
F00000
F00000
F00000
F00000
F00000
F00000
F00000
F80000
7C0000
7FFFFF
3FFFFF
1FFFFF
07FFFF
ENDCHAR
STARTCHAR LATIN
ENCODING 201
SWIDTH 500 0
DWIDTH 32 0
BBX 24 50 4 0
BITMAP
0007C0
000FC0
001F80
003F00
007E00
00FC00
01F800
01F000
000000
000000
07FFFF
1FFFFF
3FFFFF
7FFFFF
7C0000
F80000
F00000
F00000
F00000
F00000
F00000
F00000
F00000
F00000
F00000
F00000
F00000
F00000
FFFFC0
FFFFC0
FFFFC0
FFFFC0
F00000
F00000
F00000
F00000
F00000
F00000
F00000
F00000
F00000
F00000
F00000
F00000
F80000
7C0000
7FFFFF
3FFFFF
1FFFFF
07FFFF
ENDCHAR
STARTCHAR LATIN
ENCODING 202
SWIDTH 500 0
DWIDTH 32 0
BBX 24 52 4 0
BITMAP
003C00
007E00
00FF00
01FF80
03FFC0
07E7E0
0FC3F0
0F81F0
000000
000000
000000
000000
07FFFF
1FFFFF
3FFFFF
7FFFFF
7C0000
F80000
F00000
F00000
F00000
F00000
F00000
F00000
F00000
F00000
F00000
F00000
F00000
F00000
FFFFC0
FFFFC0
FFFFC0
FFFFC0
F00000
F00000
F00000
F00000
F00000
F00000
F00000
F00000
F00000
F00000
F00000
F00000
F80000
7C0000
7FFFFF
3FFFFF
1FFFFF
07FFFF
ENDCHAR
STARTCHAR LATIN
ENCODING 203
SWIDTH 500 0
DWIDTH 32 0
BBX 24 50 4 0
BITMAP
0F00F0
0F00F0
0F00F0
0F00F0
0F00F0
0F00F0
000000
000000
000000
000000
07FFFF
1FFFFF
3FFFFF
7FFFFF
7C0000
F80000
F00000
F00000
F00000
F00000
F00000
F00000
F00000
F00000
F00000
F00000
F00000
F00000
FFFFC0
FFFFC0
FFFFC0
FFFFC0
F00000
F00000
F00000
F00000
F00000
F00000
F00000
F00000
F00000
F00000
F00000
F00000
F80000
7C0000
7FFFFF
3FFFFF
1FFFFF
07FFFF
ENDCHAR
STARTCHAR LATIN
ENCODING 204
SWIDTH 500 0
DWIDTH 32 0
BBX 20 50 6 0
BITMAP
0F8000
0FC000
07E000
03F000
01F800
00FC00
007E00
003E00
000000
000000
FFFFF0
FFFFF0
FFFFF0
FFFFF0
00F000
00F000
00F000
00F000
00F000
00F000
00F000
00F000
00F000
00F000
00F000
00F000
00F000
00F000
00F000
00F000
00F000
00F000
00F000
00F000
00F000
00F000
00F000
00F000
00F000
00F000
00F000
00F000
00F000
00F000
00F000
00F000
FFFFF0
FFFFF0
FFFFF0
FFFFF0
ENDCHAR
STARTCHAR LATIN
ENCODING 205
SWIDTH 500 0
DWIDTH 32 0
BBX 20 50 6 0
BITMAP
001F00
003F00
007E00
00FC00
01F800
03F000
07E000
07C000
000000
000000
FFFFF0
FFFFF0
FFFFF0
FFFFF0
00F000
00F000
00F000
00F000
00F000
00F000
00F000
00F000
00F000
00F000
00F000
00F000
00F000
00F000
00F000
00F000
00F000
00F000
00F000
00F000
00F000
00F000
00F000
00F000
00F000
00F000
00F000
00F000
00F000
00F000
00F000
00F000
FFFFF0
FFFFF0
FFFFF0
FFFFF0
ENDCHAR
STARTCHAR LATIN
ENCODING 206
SWIDTH 500 0
DWIDTH 32 0
BBX 20 52 6 0
BITMAP
00F000
01F800
03FC00
07FE00
0FFF00
1F9F80
3F0FC0
3E07C0
000000
000000
000000
000000
FFFFF0
FFFFF0
FFFFF0
FFFFF0
00F000
00F000
00F000
00F000
00F000
00F000
00F000
00F000
00F000
00F000
00F000
00F000
00F000
00F000
00F000
00F000
00F000
00F000
00F000
00F000
00F000
00F000
00F000
00F000
00F000
00F000
00F000
00F000
00F000
00F000
00F000
00F000
FFFFF0
FFFFF0
FFFFF0
FFFFF0
ENDCHAR
STARTCHAR LATIN
ENCODING 207
SWIDTH 500 0
DWIDTH 32 0
BBX 20 50 6 0
BITMAP
3C03C0
3C03C0
3C03C0
3C03C0
3C03C0
3C03C0
000000
000000
000000
000000
FFFFF0
FFFFF0
FFFFF0
FFFFF0
00F000
00F000
00F000
00F000
00F000
00F000
00F000
00F000
00F000
00F000
00F000
00F000
00F000
00F000
00F000
00F000
00F000
00F000
00F000
00F000
00F000
00F000
00F000
00F000
00F000
00F000
00F000
00F000
00F000
00F000
00F000
00F000
FFFFF0
FFFFF0
FFFFF0
FFFFF0
ENDCHAR
STARTCHAR LATIN
ENCODING 208
SWIDTH 500 0
DWIDTH 32 0
BBX 28 40 0 0
BITMAP
0FFFFE00
0FFFFF80
0FFFFFC0
0FFFFFE0
0F0003E0
0F0001F0
0F0000F0
0F0000F0
0F0000F0
0F0000F0
0F0000F0
0F0000F0
0F0000F0
0F0000F0
0F0000F0
0F0000F0
0F0000F0
0F0000F0
FFFF00F0
FFFF00F0
FFFF00F0
FFFF00F0
0F0000F0
0F0000F0
0F0000F0
0F0000F0
0F0000F0
0F0000F0
0F0000F0
0F0000F0
0F0000F0
0F0000F0
0F0000F0
0F0000F0
0F0001F0
0F0003E0
0FFFFFE0
0FFFFFC0
0FFFFF80
0FFFFE00
ENDCHAR
STARTCHAR LATIN
ENCODING 209
SWIDTH 500 0
DWIDTH 32 0
BBX 24 50 4 0
BITMAP
07E00F
1FF80F
3FFC1F
7FFE3F
FC7FFE
F83FFC
F01FF8
F007E0
000000
000000
F0000F
F0000F
F8000F
F8000F
FC000F
FC000F
FE000F
FE000F
FF000F
FF000F
FF800F
FF800F
F7C00F
F7C00F
F3E00F
F3E00F
F1F00F
F1F00F
F0F80F
F0F80F
F07C0F
F07C0F
F03E0F
F03E0F
F01F0F
F01F0F
F00F8F
F00F8F
F007CF
F007CF
F003EF
F003EF
F001FF
F001FF
F000FF
F000FF
F0007F
F0007F
F0003F
F0003F
ENDCHAR
STARTCHAR LATIN
ENCODING 210
SWIDTH 500 0
DWIDTH 32 0
BBX 24 50 4 0
BITMAP
03E000
03F000
01F800
00FC00
007E00
003F00
001F80
000F80
000000
000000
07FFE0
1FFFF8
3FFFFC
7FFFFE
7C003E
F8001F
F0000F
F0000F
F0000F
F0000F
F0000F
F0000F
F0000F
F0000F
F0000F
F0000F
F0000F
F0000F
F0000F
F0000F
F0000F
F0000F
F0000F
F0000F
F0000F
F0000F
F0000F
F0000F
F0000F
F0000F
F0000F
F0000F
F0000F
F0000F
F8001F
7C003E
7FFFFE
3FFFFC
1FFFF8
07FFE0
ENDCHAR
STARTCHAR LATIN
ENCODING 211
SWIDTH 500 0
DWIDTH 32 0
BBX 24 50 4 0
BITMAP
0007C0
000FC0
001F80
003F00
007E00
00FC00
01F800
01F000
000000
000000
07FFE0
1FFFF8
3FFFFC
7FFFFE
7C003E
F8001F
F0000F
F0000F
F0000F
F0000F
F0000F
F0000F
F0000F
F0000F
F0000F
F0000F
F0000F
F0000F
F0000F
F0000F
F0000F
F0000F
F0000F
F0000F
F0000F
F0000F
F0000F
F0000F
F0000F
F0000F
F0000F
F0000F
F0000F
F0000F
F8001F
7C003E
7FFFFE
3FFFFC
1FFFF8
07FFE0
ENDCHAR
STARTCHAR LATIN
ENCODING 212
SWIDTH 500 0
DWIDTH 32 0
BBX 24 52 4 0
BITMAP
003C00
007E00
00FF00
01FF80
03FFC0
07E7E0
0FC3F0
0F81F0
000000
000000
000000
000000
07FFE0
1FFFF8
3FFFFC
7FFFFE
7C003E
F8001F
F0000F
F0000F
F0000F
F0000F
F0000F
F0000F
F0000F
F0000F
F0000F
F0000F
F0000F
F0000F
F0000F
F0000F
F0000F
F0000F
F0000F
F0000F
F0000F
F0000F
F0000F
F0000F
F0000F
F0000F
F0000F
F0000F
F0000F
F0000F
F8001F
7C003E
7FFFFE
3FFFFC
1FFFF8
07FFE0
ENDCHAR
STARTCHAR LATIN
ENCODING 213
SWIDTH 500 0
DWIDTH 32 0
BBX 24 50 4 0
BITMAP
07E00F
1FF80F
3FFC1F
7FFE3F
FC7FFE
F83FFC
F01FF8
F007E0
000000
000000
07FFE0
1FFFF8
3FFFFC
7FFFFE
7C003E
F8001F
F0000F
F0000F
F0000F
F0000F
F0000F
F0000F
F0000F
F0000F
F0000F
F0000F
F0000F
F0000F
F0000F
F0000F
F0000F
F0000F
F0000F
F0000F
F0000F
F0000F
F0000F
F0000F
F0000F
F0000F
F0000F
F0000F
F0000F
F0000F
F8001F
7C003E
7FFFFE
3FFFFC
1FFFF8
07FFE0
ENDCHAR
STARTCHAR LATIN
ENCODING 214
SWIDTH 500 0
DWIDTH 32 0
BBX 24 50 4 0
BITMAP
0F00F0
0F00F0
0F00F0
0F00F0
0F00F0
0F00F0
000000
000000
000000
000000
07FFE0
1FFFF8
3FFFFC
7FFFFE
7C003E
F8001F
F0000F
F0000F
F0000F
F0000F
F0000F
F0000F
F0000F
F0000F
F0000F
F0000F
F0000F
F0000F
F0000F
F0000F
F0000F
F0000F
F0000F
F0000F
F0000F
F0000F
F0000F
F0000F
F0000F
F0000F
F0000F
F0000F
F0000F
F0000F
F8001F
7C003E
7FFFFE
3FFFFC
1FFFF8
07FFE0
ENDCHAR
STARTCHAR MULTIPLICATION
ENCODING 215
SWIDTH 500 0
DWIDTH 32 0
BBX 24 24 4 8
BITMAP
E00007
F0000F
F8001F
FC003F
7E007E
3F00FC
1F81F8
0FC3F0
07E7E0
03FFC0
01FF80
00FF00
00FF00
01FF80
03FFC0
07E7E0
0FC3F0
1F81F8
3F00FC
7E007E
FC003F
F8001F
F0000F
E00007
ENDCHAR
STARTCHAR LATIN
ENCODING 216
SWIDTH 500 0
DWIDTH 32 0
BBX 26 48 2 -4
BITMAP
000003C0
000003C0
000007C0
000007C0
01FFFF80
07FFFF80
0FFFFF00
1FFFFF80
1F003FC0
3E003FC0
3C007FC0
3C007FC0
3C00FBC0
3C00FBC0
3C01F3C0
3C01F3C0
3C03E3C0
3C03E3C0
3C07C3C0
3C07C3C0
3C0F83C0
3C0F83C0
3C1F03C0
3C1F03C0
3C3E03C0
3C3E03C0
3C7C03C0
3C7C03C0
3CF803C0
3CF803C0
3DF003C0
3DF003C0
3FE003C0
3FE003C0
3FC003C0
3FC003C0
3F8003C0
3F8003C0
3F0007C0
3F000F80
3FFFFF80
3FFFFF00
3FFFFE00
3FFFF800
78000000
78000000
F0000000
F0000000
ENDCHAR
STARTCHAR LATIN
ENCODING 217
SWIDTH 500 0
DWIDTH 32 0
BBX 24 50 4 0
BITMAP
03E000
03F000
01F800
00FC00
007E00
003F00
001F80
000F80
000000
000000
F0000F
F0000F
F0000F
F0000F
F0000F
F0000F
F0000F
F0000F
F0000F
F0000F
F0000F
F0000F
F0000F
F0000F
F0000F
F0000F
F0000F
F0000F
F0000F
F0000F
F0000F
F0000F
F0000F
F0000F
F0000F
F0000F
F0000F
F0000F
F0000F
F0000F
F0000F
F0000F
F0000F
F0000F
F8000F
7C000F
7FFFFF
3FFFFF
1FFFFF
07FFFF
ENDCHAR
STARTCHAR LATIN
ENCODING 218
SWIDTH 500 0
DWIDTH 32 0
BBX 24 50 4 0
BITMAP
0007C0
000FC0
001F80
003F00
007E00
00FC00
01F800
01F000
000000
000000
F0000F
F0000F
F0000F
F0000F
F0000F
F0000F
F0000F
F0000F
F0000F
F0000F
F0000F
F0000F
F0000F
F0000F
F0000F
F0000F
F0000F
F0000F
F0000F
F0000F
F0000F
F0000F
F0000F
F0000F
F0000F
F0000F
F0000F
F0000F
F0000F
F0000F
F0000F
F0000F
F0000F
F0000F
F8000F
7C000F
7FFFFF
3FFFFF
1FFFFF
07FFFF
ENDCHAR
STARTCHAR LATIN
ENCODING 219
SWIDTH 500 0
DWIDTH 32 0
BBX 24 52 4 0
BITMAP
003C00
007E00
00FF00
01FF80
03FFC0
07E7E0
0FC3F0
0F81F0
000000
000000
000000
000000
F0000F
F0000F
F0000F
F0000F
F0000F
F0000F
F0000F
F0000F
F0000F
F0000F
F0000F
F0000F
F0000F
F0000F
F0000F
F0000F
F0000F
F0000F
F0000F
F0000F
F0000F
F0000F
F0000F
F0000F
F0000F
F0000F
F0000F
F0000F
F0000F
F0000F
F0000F
F0000F
F0000F
F0000F
F8000F
7C000F
7FFFFF
3FFFFF
1FFFFF
07FFFF
ENDCHAR
STARTCHAR LATIN
ENCODING 220
SWIDTH 500 0
DWIDTH 32 0
BBX 24 50 4 0
BITMAP
0F00F0
0F00F0
0F00F0
0F00F0
0F00F0
0F00F0
000000
000000
000000
000000
F0000F
F0000F
F0000F
F0000F
F0000F
F0000F
F0000F
F0000F
F0000F
F0000F
F0000F
F0000F
F0000F
F0000F
F0000F
F0000F
F0000F
F0000F
F0000F
F0000F
F0000F
F0000F
F0000F
F0000F
F0000F
F0000F
F0000F
F0000F
F0000F
F0000F
F0000F
F0000F
F0000F
F0000F
F8000F
7C000F
7FFFFF
3FFFFF
1FFFFF
07FFFF
ENDCHAR
STARTCHAR LATIN
ENCODING 221
SWIDTH 500 0
DWIDTH 32 0
BBX 24 50 4 0
BITMAP
0007C0
000FC0
001F80
003F00
007E00
00FC00
01F800
01F000
000000
000000
F0000F
F0000F
F0000F
F0000F
F0000F
F0000F
F0000F
F0000F
F0000F
F0000F
F0000F
F0000F
F0000F
F0000F
F0000F
F0000F
F8000F
7C000F
7FFFFF
3FFFFF
1FFFFF
07FFFF
00000F
00000F
00000F
00000F
00000F
00000F
00000F
00000F
00000F
00000F
00000F
00000F
00001F
00003E
FFFFFE
FFFFFC
FFFFF8
FFFFE0
ENDCHAR
STARTCHAR LATIN
ENCODING 222
SWIDTH 500 0
DWIDTH 32 0
BBX 24 44 4 -8
BITMAP
F00000
F00000
F00000
F00000
F00000
F00000
F00000
F00000
FFFFE0
FFFFF8
FFFFFC
FFFFFE
F0003E
F0001F
F0000F
F0000F
F0000F
F0000F
F0000F
F0000F
F0000F
F0000F
F0000F
F0000F
F0000F
F0000F
F0000F
F0000F
F0000F
F0000F
F0001F
F0003E
FFFFFE
FFFFFC
FFFFF8
FFFFE0
F00000
F00000
F00000
F00000
F00000
F00000
F00000
F00000
ENDCHAR
STARTCHAR LATIN
ENCODING 223
SWIDTH 500 0
DWIDTH 32 0
BBX 24 40 4 0
BITMAP
07FE00
1FFF80
3FFFC0
7FFFE0
7C03E0
F801F0
F000F0
F000F0
F000F0
F000F0
F000F0
F000F0
F000F0
F000F0
F001F0
F003F0
FFFFE0
FFFFC0
FFFF80
FFFF00
F03FC0
F00FF0
F003FC
F000FE
F0003F
F0001F
F0000F
F0000F
F0000F
F0000F
F0000F
F8000F
FC000F
FE000F
FF001F
FFC03E
F7FFFE
F3FFFC
F1FFF8
F0FFE0
ENDCHAR
STARTCHAR LATIN
ENCODING 224
SWIDTH 500 0
DWIDTH 32 0
BBX 24 44 4 0
BITMAP
038000
03C000
03E000
03F000
01F800
00FC00
007E00
003F00
001F80
000FC0
0007C0
0003C0
000000
000000
000000
000000
3FFFE0
3FFFF8
3FFFFC
3FFFFE
00003E
00001F
00000F
00000F
00000F
00000F
07FFFF
1FFFFF
3FFFFF
7FFFFF
7C000F
F8000F
F0000F
F0000F
F0000F
F0000F
F0000F
F0000F
F8000F
7C000F
7FFFFF
3FFFFF
1FFFFF
07FFFF
ENDCHAR
STARTCHAR LATIN
ENCODING 225
SWIDTH 500 0
DWIDTH 32 0
BBX 24 44 4 0
BITMAP
000070
0000F0
0001F0
0003F0
0007E0
000FC0
001F80
003F00
007E00
00FC00
00F800
00F000
000000
000000
000000
000000
3FFFE0
3FFFF8
3FFFFC
3FFFFE
00003E
00001F
00000F
00000F
00000F
00000F
07FFFF
1FFFFF
3FFFFF
7FFFFF
7C000F
F8000F
F0000F
F0000F
F0000F
F0000F
F0000F
F0000F
F8000F
7C000F
7FFFFF
3FFFFF
1FFFFF
07FFFF
ENDCHAR
STARTCHAR LATIN
ENCODING 226
SWIDTH 500 0
DWIDTH 32 0
BBX 24 44 4 0
BITMAP
003C00
007E00
00FF00
01FF80
03FFC0
07E7E0
0FC3F0
1F81F8
3F00FC
3E007C
3C003C
38001C
000000
000000
000000
000000
3FFFE0
3FFFF8
3FFFFC
3FFFFE
00003E
00001F
00000F
00000F
00000F
00000F
07FFFF
1FFFFF
3FFFFF
7FFFFF
7C000F
F8000F
F0000F
F0000F
F0000F
F0000F
F0000F
F0000F
F8000F
7C000F
7FFFFF
3FFFFF
1FFFFF
07FFFF
ENDCHAR
STARTCHAR LATIN
ENCODING 227
SWIDTH 500 0
DWIDTH 32 0
BBX 24 44 4 0
BITMAP
07800F
1FE00F
3FF00F
7FF80F
FCFC1F
F87E3F
F03FFE
F01FFC
F00FF8
F003E0
000000
000000
000000
000000
000000
000000
3FFFE0
3FFFF8
3FFFFC
3FFFFE
00003E
00001F
00000F
00000F
00000F
00000F
07FFFF
1FFFFF
3FFFFF
7FFFFF
7C000F
F8000F
F0000F
F0000F
F0000F
F0000F
F0000F
F0000F
F8000F
7C000F
7FFFFF
3FFFFF
1FFFFF
07FFFF
ENDCHAR
STARTCHAR LATIN
ENCODING 228
SWIDTH 500 0
DWIDTH 32 0
BBX 24 40 4 0
BITMAP
0F00F0
0F00F0
0F00F0
0F00F0
0F00F0
0F00F0
000000
000000
000000
000000
000000
000000
3FFFE0
3FFFF8
3FFFFC
3FFFFE
00003E
00001F
00000F
00000F
00000F
00000F
07FFFF
1FFFFF
3FFFFF
7FFFFF
7C000F
F8000F
F0000F
F0000F
F0000F
F0000F
F0000F
F0000F
F8000F
7C000F
7FFFFF
3FFFFF
1FFFFF
07FFFF
ENDCHAR
STARTCHAR LATIN
ENCODING 229
SWIDTH 500 0
DWIDTH 32 0
BBX 24 44 4 0
BITMAP
001E00
007F80
00FFC0
01FFE0
01E1E0
03C0F0
03C0F0
03C0F0
03C0F0
01E1E0
01FFE0
00FFC0
007F80
001E00
000000
000000
3FFFE0
3FFFF8
3FFFFC
3FFFFE
00003E
00001F
00000F
00000F
00000F
00000F
07FFFF
1FFFFF
3FFFFF
7FFFFF
7C000F
F8000F
F0000F
F0000F
F0000F
F0000F
F0000F
F0000F
F8000F
7C000F
7FFFFF
3FFFFF
1FFFFF
07FFFF
ENDCHAR
STARTCHAR LATIN
ENCODING 230
SWIDTH 500 0
DWIDTH 32 0
BBX 28 28 4 0
BITMAP
3FF0FFF0
3FF9FFF0
3FFFFFF0
3FFFFFF0
003FC0F0
001F80F0
000F00F0
000F00F0
000F00F0
000F00F0
07FF00F0
1FFF00F0
3FFFFFF0
7FFFFFF0
7C0FFFF0
F80FFFF0
F00F0000
F00F0000
F00F0000
F00F0000
F00F0000
F00F0000
F81F8000
7C3FC000
7FFFFFF0
3FFFFFF0
1FF9FFF0
07F0FFF0
ENDCHAR
STARTCHAR LATIN
ENCODING 231
SWIDTH 500 0
DWIDTH 32 0
BBX 24 40 4 -12
BITMAP
07FFFF
1FFFFF
3FFFFF
7FFFFF
7C0000
F80000
F00000
F00000
F00000
F00000
F00000
F00000
F00000
F00000
F00000
F00000
F00000
F00000
F00000
F00000
F00000
F00000
F80000
7C0000
7FFFFF
3FFFFF
1FFFFF
07FFFF
000F00
000F00
000F00
000F00
000F00
000F00
001F00
003E00
00FE00
00FC00
00F800
00E000
ENDCHAR
STARTCHAR LATIN
ENCODING 232
SWIDTH 500 0
DWIDTH 32 0
BBX 24 44 4 0
BITMAP
038000
03C000
03E000
03F000
01F800
00FC00
007E00
003F00
001F80
000FC0
0007C0
0003C0
000000
000000
000000
000000
07FFFF
1FFFFF
3FFFFF
7FFFFF
7C000F
F8000F
F0000F
F0000F
F0000F
F0000F
F0000F
F0000F
FFFFFF
FFFFFF
FFFFFF
FFFFFF
F00000
F00000
F00000
F00000
F00000
F00000
F80000
7C0000
7FFFFF
3FFFFF
1FFFFF
07FFFF
ENDCHAR
STARTCHAR LATIN
ENCODING 233
SWIDTH 500 0
DWIDTH 32 0
BBX 24 44 4 0
BITMAP
000070
0000F0
0001F0
0003F0
0007E0
000FC0
001F80
003F00
007E00
00FC00
00F800
00F000
000000
000000
000000
000000
07FFFF
1FFFFF
3FFFFF
7FFFFF
7C000F
F8000F
F0000F
F0000F
F0000F
F0000F
F0000F
F0000F
FFFFFF
FFFFFF
FFFFFF
FFFFFF
F00000
F00000
F00000
F00000
F00000
F00000
F80000
7C0000
7FFFFF
3FFFFF
1FFFFF
07FFFF
ENDCHAR
STARTCHAR LATIN
ENCODING 234
SWIDTH 500 0
DWIDTH 32 0
BBX 24 44 4 0
BITMAP
003C00
007E00
00FF00
01FF80
03FFC0
07E7E0
0FC3F0
1F81F8
3F00FC
3E007C
3C003C
38001C
000000
000000
000000
000000
07FFFF
1FFFFF
3FFFFF
7FFFFF
7C000F
F8000F
F0000F
F0000F
F0000F
F0000F
F0000F
F0000F
FFFFFF
FFFFFF
FFFFFF
FFFFFF
F00000
F00000
F00000
F00000
F00000
F00000
F80000
7C0000
7FFFFF
3FFFFF
1FFFFF
07FFFF
ENDCHAR
STARTCHAR LATIN
ENCODING 235
SWIDTH 500 0
DWIDTH 32 0
BBX 24 40 4 0
BITMAP
0F00F0
0F00F0
0F00F0
0F00F0
0F00F0
0F00F0
000000
000000
000000
000000
000000
000000
07FFFF
1FFFFF
3FFFFF
7FFFFF
7C000F
F8000F
F0000F
F0000F
F0000F
F0000F
F0000F
F0000F
FFFFFF
FFFFFF
FFFFFF
FFFFFF
F00000
F00000
F00000
F00000
F00000
F00000
F80000
7C0000
7FFFFF
3FFFFF
1FFFFF
07FFFF
ENDCHAR
STARTCHAR LATIN
ENCODING 236
SWIDTH 500 0
DWIDTH 32 0
BBX 12 44 10 0
BITMAP
E000
F000
F800
FC00
7E00
3F00
1F80
0FC0
07E0
03F0
01F0
00F0
0000
0000
0000
0000
0F00
0F00
0F00
0F00
0F00
0F00
0F00
0F00
0F00
0F00
0F00
0F00
0F00
0F00
0F00
0F00
0F00
0F00
0F00
0F00
0F00
0F00
0F00
0F00
0F00
0F00
0F00
0F00
ENDCHAR
STARTCHAR LATIN
ENCODING 237
SWIDTH 500 0
DWIDTH 32 0
BBX 12 44 10 0
BITMAP
0070
00F0
01F0
03F0
07E0
0FC0
1F80
3F00
7E00
FC00
F800
F000
0000
0000
0000
0000
0F00
0F00
0F00
0F00
0F00
0F00
0F00
0F00
0F00
0F00
0F00
0F00
0F00
0F00
0F00
0F00
0F00
0F00
0F00
0F00
0F00
0F00
0F00
0F00
0F00
0F00
0F00
0F00
ENDCHAR
STARTCHAR LATIN
ENCODING 238
SWIDTH 500 0
DWIDTH 32 0
BBX 20 44 6 0
BITMAP
00F000
01F800
03FC00
07FE00
0FFF00
1F9F80
3F0FC0
7E07E0
FC03F0
F801F0
F000F0
E00070
000000
000000
000000
000000
00F000
00F000
00F000
00F000
00F000
00F000
00F000
00F000
00F000
00F000
00F000
00F000
00F000
00F000
00F000
00F000
00F000
00F000
00F000
00F000
00F000
00F000
00F000
00F000
00F000
00F000
00F000
00F000
ENDCHAR
STARTCHAR LATIN
ENCODING 239
SWIDTH 500 0
DWIDTH 32 0
BBX 16 40 8 0
BITMAP
F00F
F00F
F00F
F00F
F00F
F00F
0000
0000
0000
0000
0000
0000
03C0
03C0
03C0
03C0
03C0
03C0
03C0
03C0
03C0
03C0
03C0
03C0
03C0
03C0
03C0
03C0
03C0
03C0
03C0
03C0
03C0
03C0
03C0
03C0
03C0
03C0
03C0
03C0
ENDCHAR
STARTCHAR LATIN
ENCODING 240
SWIDTH 500 0
DWIDTH 32 0
BBX 24 42 4 0
BITMAP
3C3C00
3E7C00
3FFC00
1FF800
0FF000
07E000
0FF000
1FF800
3FFC00
3F7E00
3E3F00
3C1F80
000FC0
0007E0
07FFF0
1FFFF8
3FFFFC
7FFFFE
7C003E
F8001F
F0000F
F0000F
F0000F
F0000F
F0000F
F0000F
F0000F
F0000F
F0000F
F0000F
F0000F
F0000F
F0000F
F0000F
F0000F
F0000F
F8001F
7C003E
7FFFFE
3FFFFC
1FFFF8
07FFE0
ENDCHAR
STARTCHAR LATIN
ENCODING 241
SWIDTH 500 0
DWIDTH 32 0
BBX 24 44 4 0
BITMAP
07800F
1FE00F
3FF00F
7FF80F
FCFC1F
F87E3F
F03FFE
F01FFC
F00FF8
F003E0
000000
000000
000000
000000
000000
000000
FFFFE0
FFFFF8
FFFFFC
FFFFFE
F0003E
F0001F
F0000F
F0000F
F0000F
F0000F
F0000F
F0000F
F0000F
F0000F
F0000F
F0000F
F0000F
F0000F
F0000F
F0000F
F0000F
F0000F
F0000F
F0000F
F0000F
F0000F
F0000F
F0000F
ENDCHAR
STARTCHAR LATIN
ENCODING 242
SWIDTH 500 0
DWIDTH 32 0
BBX 24 44 4 0
BITMAP
038000
03C000
03E000
03F000
01F800
00FC00
007E00
003F00
001F80
000FC0
0007C0
0003C0
000000
000000
000000
000000
07FFE0
1FFFF8
3FFFFC
7FFFFE
7C003E
F8001F
F0000F
F0000F
F0000F
F0000F
F0000F
F0000F
F0000F
F0000F
F0000F
F0000F
F0000F
F0000F
F0000F
F0000F
F0000F
F0000F
F8001F
7C003E
7FFFFE
3FFFFC
1FFFF8
07FFE0
ENDCHAR
STARTCHAR LATIN
ENCODING 243
SWIDTH 500 0
DWIDTH 32 0
BBX 24 44 4 0
BITMAP
0001C0
0003C0
0007C0
000FC0
001F80
003F00
007E00
00FC00
01F800
03F000
03E000
03C000
000000
000000
000000
000000
07FFE0
1FFFF8
3FFFFC
7FFFFE
7C003E
F8001F
F0000F
F0000F
F0000F
F0000F
F0000F
F0000F
F0000F
F0000F
F0000F
F0000F
F0000F
F0000F
F0000F
F0000F
F0000F
F0000F
F8001F
7C003E
7FFFFE
3FFFFC
1FFFF8
07FFE0
ENDCHAR
STARTCHAR LATIN
ENCODING 244
SWIDTH 500 0
DWIDTH 32 0
BBX 24 44 4 0
BITMAP
003C00
007E00
00FF00
01FF80
03FFC0
07E7E0
0FC3F0
1F81F8
3F00FC
3E007C
3C003C
38001C
000000
000000
000000
000000
07FFE0
1FFFF8
3FFFFC
7FFFFE
7C003E
F8001F
F0000F
F0000F
F0000F
F0000F
F0000F
F0000F
F0000F
F0000F
F0000F
F0000F
F0000F
F0000F
F0000F
F0000F
F0000F
F0000F
F8001F
7C003E
7FFFFE
3FFFFC
1FFFF8
07FFE0
ENDCHAR
STARTCHAR LATIN
ENCODING 245
SWIDTH 500 0
DWIDTH 32 0
BBX 25 44 3 0
BITMAP
07800F00
1FE00F00
3FF00F00
7FF80F00
FCFC1F00
F87E3F00
F03FFE00
F01FFC00
F00FF800
F003E000
00000000
00000000
00000000
00000000
00000000
00000000
03FFF000
0FFFFC00
1FFFFE00
3FFFFF00
3E001F00
7C000F80
78000780
78000780
78000780
78000780
78000780
78000780
78000780
78000780
78000780
78000780
78000780
78000780
78000780
78000780
78000780
78000780
7C000F80
3E001F00
3FFFFF00
1FFFFE00
0FFFFC00
03FFF000
ENDCHAR
STARTCHAR LATIN
ENCODING 246
SWIDTH 500 0
DWIDTH 32 0
BBX 24 40 4 0
BITMAP
0F00F0
0F00F0
0F00F0
0F00F0
0F00F0
0F00F0
000000
000000
000000
000000
000000
000000
07FFE0
1FFFF8
3FFFFC
7FFFFE
7C003E
F8001F
F0000F
F0000F
F0000F
F0000F
F0000F
F0000F
F0000F
F0000F
F0000F
F0000F
F0000F
F0000F
F0000F
F0000F
F0000F
F0000F
F8001F
7C003E
7FFFFE
3FFFFC
1FFFF8
07FFE0
ENDCHAR
STARTCHAR DIVISION
ENCODING 247
SWIDTH 500 0
DWIDTH 32 0
BBX 20 24 6 6
BITMAP
00F000
00F000
00F000
00F000
00F000
00F000
000000
000000
000000
000000
FFFFF0
FFFFF0
FFFFF0
FFFFF0
000000
000000
000000
000000
00F000
00F000
00F000
00F000
00F000
00F000
ENDCHAR
STARTCHAR LATIN
ENCODING 248
SWIDTH 500 0
DWIDTH 32 0
BBX 28 28 2 0
BITMAP
01FFF870
07FFFEF0
0FFFFFF0
1FFFFFE0
1F000FC0
3E000FC0
3C001FC0
3C003FC0
3C007FC0
3C00FFC0
3C01FBC0
3C03F3C0
3C07E3C0
3C0FC3C0
3C1F83C0
3C3F03C0
3C7E03C0
3CFC03C0
3DF803C0
3FF003C0
3FE003C0
3FC003C0
3F8007C0
3F000F80
7FFFFF80
FFFFFF00
F7FFFE00
E1FFF800
ENDCHAR
STARTCHAR LATIN
ENCODING 249
SWIDTH 500 0
DWIDTH 32 0
BBX 24 44 4 0
BITMAP
038000
03C000
03E000
03F000
01F800
00FC00
007E00
003F00
001F80
000FC0
0007C0
0003C0
000000
000000
000000
000000
F0000F
F0000F
F0000F
F0000F
F0000F
F0000F
F0000F
F0000F
F0000F
F0000F
F0000F
F0000F
F0000F
F0000F
F0000F
F0000F
F0000F
F0000F
F0000F
F0000F
F0000F
F0000F
F8000F
7C000F
7FFFFF
3FFFFF
1FFFFF
07FFFF
ENDCHAR
STARTCHAR LATIN
ENCODING 250
SWIDTH 500 0
DWIDTH 32 0
BBX 24 44 4 0
BITMAP
0001C0
0003C0
0007C0
000FC0
001F80
003F00
007E00
00FC00
01F800
03F000
03E000
03C000
000000
000000
000000
000000
F0000F
F0000F
F0000F
F0000F
F0000F
F0000F
F0000F
F0000F
F0000F
F0000F
F0000F
F0000F
F0000F
F0000F
F0000F
F0000F
F0000F
F0000F
F0000F
F0000F
F0000F
F0000F
F8000F
7C000F
7FFFFF
3FFFFF
1FFFFF
07FFFF
ENDCHAR
STARTCHAR LATIN
ENCODING 251
SWIDTH 500 0
DWIDTH 32 0
BBX 24 44 4 0
BITMAP
003C00
007E00
00FF00
01FF80
03FFC0
07E7E0
0FC3F0
1F81F8
3F00FC
3E007C
3C003C
38001C
000000
000000
000000
000000
F0000F
F0000F
F0000F
F0000F
F0000F
F0000F
F0000F
F0000F
F0000F
F0000F
F0000F
F0000F
F0000F
F0000F
F0000F
F0000F
F0000F
F0000F
F0000F
F0000F
F0000F
F0000F
F8000F
7C000F
7FFFFF
3FFFFF
1FFFFF
07FFFF
ENDCHAR
STARTCHAR LATIN
ENCODING 252
SWIDTH 500 0
DWIDTH 32 0
BBX 24 40 4 0
BITMAP
0F00F0
0F00F0
0F00F0
0F00F0
0F00F0
0F00F0
000000
000000
000000
000000
000000
000000
F0000F
F0000F
F0000F
F0000F
F0000F
F0000F
F0000F
F0000F
F0000F
F0000F
F0000F
F0000F
F0000F
F0000F
F0000F
F0000F
F0000F
F0000F
F0000F
F0000F
F0000F
F0000F
F8000F
7C000F
7FFFFF
3FFFFF
1FFFFF
07FFFF
ENDCHAR
STARTCHAR LATIN
ENCODING 253
SWIDTH 500 0
DWIDTH 32 0
BBX 24 56 4 -12
BITMAP
0001C0
0003C0
0007C0
000FC0
001F80
003F00
007E00
00FC00
01F800
03F000
03E000
03C000
000000
000000
000000
000000
F0000F
F0000F
F0000F
F0000F
F0000F
F0000F
F0000F
F0000F
F0000F
F0000F
F0000F
F0000F
F0000F
F0000F
F0000F
F0000F
F0000F
F0000F
F0000F
F0000F
F0000F
F0000F
F8000F
7C000F
7FFFFF
3FFFFF
1FFFFF
07FFFF
00000F
00000F
00000F
00000F
00000F
00000F
00001F
00003E
FFFFFE
FFFFFC
FFFFF8
FFFFE0
ENDCHAR
STARTCHAR LATIN
ENCODING 254
SWIDTH 500 0
DWIDTH 32 0
BBX 24 52 4 -12
BITMAP
F00000
F00000
F00000
F00000
F00000
F00000
F00000
F00000
F00000
F00000
F00000
F00000
FFFFE0
FFFFF8
FFFFFC
FFFFFE
F0003E
F0001F
F0000F
F0000F
F0000F
F0000F
F0000F
F0000F
F0000F
F0000F
F0000F
F0000F
F0000F
F0000F
F0000F
F0000F
F0000F
F0000F
F0001F
F0003E
FFFFFE
FFFFFC
FFFFF8
FFFFE0
F00000
F00000
F00000
F00000
F00000
F00000
F00000
F00000
F00000
F00000
F00000
F00000
ENDCHAR
STARTCHAR LATIN
ENCODING 255
SWIDTH 500 0
DWIDTH 32 0
BBX 24 52 4 -12
BITMAP
0F00F0
0F00F0
0F00F0
0F00F0
0F00F0
0F00F0
000000
000000
000000
000000
000000
000000
F0000F
F0000F
F0000F
F0000F
F0000F
F0000F
F0000F
F0000F
F0000F
F0000F
F0000F
F0000F
F0000F
F0000F
F0000F
F0000F
F0000F
F0000F
F0000F
F0000F
F0000F
F0000F
F8000F
7C000F
7FFFFF
3FFFFF
1FFFFF
07FFFF
00000F
00000F
00000F
00000F
00000F
00000F
00001F
00003E
FFFFFE
FFFFFC
FFFFF8
FFFFE0
ENDCHAR
ENDFONT
